<?xml version="1.0" encoding="UTF-8" standalone="no"?>
<!-- Created with Inkscape (http://www.inkscape.org/) -->

<svg
   xmlns:dc="http://purl.org/dc/elements/1.1/"
   xmlns:cc="http://creativecommons.org/ns#"
   xmlns:rdf="http://www.w3.org/1999/02/22-rdf-syntax-ns#"
   xmlns:svg="http://www.w3.org/2000/svg"
   xmlns="http://www.w3.org/2000/svg"
   xmlns:sodipodi="http://sodipodi.sourceforge.net/DTD/sodipodi-0.dtd"
   xmlns:inkscape="http://www.inkscape.org/namespaces/inkscape"
   id="svg3039"
   version="1.1"
   inkscape:version="0.48.5 r10040"
   width="433"
   height="166"
   sodipodi:docname="etm_grey-green.png">
  <metadata
     id="metadata3045">
    <rdf:RDF>
      <cc:Work
         rdf:about="">
        <dc:format>image/svg+xml</dc:format>
        <dc:type
           rdf:resource="http://purl.org/dc/dcmitype/StillImage" />
        <dc:title></dc:title>
      </cc:Work>
    </rdf:RDF>
  </metadata>
  <defs
     id="defs3043" />
  <sodipodi:namedview
     pagecolor="#ffffff"
     bordercolor="#666666"
     borderopacity="1"
     objecttolerance="10"
     gridtolerance="10"
     guidetolerance="10"
     inkscape:pageopacity="0"
     inkscape:pageshadow="2"
     inkscape:window-width="1366"
     inkscape:window-height="706"
     id="namedview3041"
     showgrid="false"
     inkscape:zoom="0.66050808"
     inkscape:cx="216.5"
     inkscape:cy="83"
     inkscape:window-x="1912"
     inkscape:window-y="157"
     inkscape:window-maximized="1"
     inkscape:current-layer="svg3039" />
  <g
     id="g3049"
     transform="translate(-2.0979013e-7,-12.111888)">
    <path
       style="fill:#83e363"
       d="m 41.651969,163.24589 c -0.256336,-0.41476 0.911776,-0.75226 2.595805,-0.75 1.684028,0.002 3.2547,-0.55839 3.490381,-1.24589 C 48.002191,160.47979 47.251873,160 45.783333,160 42.536205,160 41,158.20872 41,154.42244 c 0,-3.72489 1.962113,-5.70749 5.194958,-5.2492 2.064025,0.29259 2.336663,0.93681 2.607463,6.16113 0.178368,3.4411 -0.179511,6.41507 -0.872444,7.25 -1.239879,1.49397 -5.486948,1.94148 -6.278008,0.66152 z M 48,154.43358 c 0,-4.3916 -0.105286,-4.55431 -2.75,-4.25 -2.182889,0.25117 -2.816934,0.90095 -3.074574,3.15089 C 41.704052,157.45094 42.604468,159 45.468615,159 47.807563,159 48,158.65286 48,154.43358 z m 4.633731,8.7828 c -0.266367,-0.43099 0.675648,-0.76849 2.093366,-0.75 1.417718,0.0185 2.771596,-0.52888 3.008619,-1.21638 0.244804,-0.71007 -0.382542,-1.25 -1.452383,-1.25 -3.04721,0 -4.293708,-2.09953 -4.126229,-6.95 l 0.157103,-4.55 0.592897,5 c 0.493845,4.16469 0.959694,5.05219 2.788472,5.31242 1.987386,0.28279 2.230607,-0.19132 2.565017,-5 0.362875,-5.21798 0.372731,-5.19598 0.554425,1.23758 0.112899,3.99762 -0.282629,7.01761 -1.015018,7.75 -1.354566,1.35457 -4.433094,1.60268 -5.166269,0.41638 z M 5.2,158.8 C 4.54,158.14 4,155.03814 4,151.90699 c 0,-6.00988 0.8056412,-7.03566 5.3317875,-6.78868 1.5704385,0.0857 1.3411155,0.29425 -0.8317875,0.75644 -2.0997613,0.44663 -3.0958907,1.31136 -3.319551,2.88168 -0.2725561,1.91362 0.1686396,2.26711 3,2.40361 L 11.5,151.32007 8.1916913,151.72774 c -3.0458683,0.37534 -3.2838513,0.65977 -3,3.58559 0.2543035,2.62126 0.833807,3.28934 3.3083087,3.81398 2.78155,0.58974 2.814318,0.64468 0.45,0.75438 C 7.5475,159.94676 5.86,159.46 5.2,158.8 z m 8.957104,-3.53095 c -0.145427,-4.84215 0.03415,-5.27895 2.416112,-5.87678 3.611144,-0.90634 4.606124,0.57824 4.167521,6.21822 L 20.360496,160.5 20.180248,155.18045 c -0.16609,-4.90172 -0.356976,-5.29445 -2.430248,-5 -1.893031,0.26885 -2.344065,1.11281 -2.842896,5.31955 l -0.592897,5 -0.157103,-5.23095 z m 11.455314,3.43681 c -2.2542,-1.64831 -1.840835,-7.54808 0.637582,-9.0999 2.257433,-1.41345 5.124964,0.25786 5.569551,3.24617 C 32.095633,154.70782 31.653535,155 28.569551,155 26.083693,155 25,155.44961 25,156.48095 c 0,1.69864 4.289171,3.0764 6.097673,1.95868 0.770796,-0.47637 0.951846,-0.32877 0.497819,0.40586 -0.946559,1.53157 -3.788275,1.46525 -5.983074,-0.13963 z M 30.809629,152.25 C 30.597025,151.14604 29.559812,150.5 28,150.5 c -1.559812,0 -2.597025,0.64604 -2.809629,1.75 C 24.927052,153.6173 25.54147,154 28,154 c 2.45853,0 3.072948,-0.3827 2.809629,-1.75 z m 4.61234,2.25937 c 0.06609,-4.22681 0.384135,-5.02155 2.078031,-5.19259 1.462562,-0.14768 1.543192,-0.0659 0.300051,0.30432 -1.206831,0.35941 -1.809622,1.86567 -2.078031,5.19259 l -0.378082,4.68631 0.07803,-4.99063 z m 32.8879,-0.009 c -0.0056,-3.3 0.176483,-4.77056 0.404657,-3.26791 0.228174,1.50265 0.232767,4.20265 0.0102,6 C 68.50217,159.02944 68.315482,157.8 68.309869,154.5 z m 5.107633,4.63169 c 3.554158,-0.76954 4.439459,-2.72493 1.636484,-3.61456 -2.587575,-0.82126 -4.614081,-4.35703 -3.268449,-5.70267 0.53395,-0.53395 2.263138,-0.77806 3.842641,-0.54247 2.824391,0.42127 2.818145,0.43082 -0.378178,0.57818 -4.046021,0.18653 -4.118822,1.39499 -0.25,4.14983 4.61553,3.28655 3.461365,6.19781 -2.331787,5.88169 -1.627147,-0.0888 -1.440165,-0.27595 0.749289,-0.75 z m 13.194916,-0.42583 c -2.2542,-1.64831 -1.840835,-7.54808 0.637582,-9.0999 2.257433,-1.41345 5.124964,0.25786 5.569551,3.24617 0.276082,1.85532 -0.166016,2.1475 -3.25,2.1475 C 87.083693,155 86,155.44961 86,156.48095 c 0,1.69864 4.289171,3.0764 6.097673,1.95868 0.770796,-0.47637 0.951846,-0.32877 0.497819,0.40586 -0.946559,1.53157 -3.788275,1.46525 -5.983074,-0.13963 z M 91.809629,152.25 C 91.597025,151.14604 90.559812,150.5 89,150.5 c -1.559812,0 -2.597025,0.64604 -2.809629,1.75 C 85.927052,153.6173 86.54147,154 89,154 c 2.45853,0 3.072948,-0.3827 2.809629,-1.75 z m 5.607873,6.88169 c 3.554158,-0.76954 4.439458,-2.72493 1.636484,-3.61456 -2.587575,-0.82126 -4.614081,-4.35703 -3.268449,-5.70267 0.53395,-0.53395 2.263138,-0.77806 3.842641,-0.54247 2.824392,0.42127 2.818142,0.43082 -0.378178,0.57818 -4.046021,0.18653 -4.118822,1.39499 -0.25,4.14983 4.61553,3.28655 3.46136,6.19781 -2.331787,5.88169 -1.627147,-0.0888 -1.440165,-0.27595 0.749289,-0.75 z m 8.999998,0 c 3.55416,-0.76954 4.43946,-2.72493 1.63649,-3.61456 -2.58758,-0.82126 -4.61409,-4.35703 -3.26845,-5.70267 0.53395,-0.53395 2.26314,-0.77806 3.84264,-0.54247 2.82439,0.42127 2.81814,0.43082 -0.37818,0.57818 -4.04602,0.18653 -4.11882,1.39499 -0.25,4.14983 4.61553,3.28655 3.46136,6.19781 -2.33179,5.88169 -1.62714,-0.0888 -1.44016,-0.27595 0.74929,-0.75 z m 8.19492,-0.42583 c -2.2542,-1.64831 -1.84084,-7.54808 0.63758,-9.0999 2.25743,-1.41345 5.12496,0.25786 5.56955,3.24617 0.27608,1.85569 -0.16601,2.14787 -3.25,2.14787 -2.48586,0 -3.56955,0.44961 -3.56955,1.48095 0,1.69864 4.28917,3.0764 6.09767,1.95868 0.7708,-0.47637 0.95185,-0.32877 0.49782,0.40586 -0.94656,1.53157 -3.78827,1.46525 -5.98307,-0.13963 z m 5.19721,-6.45586 c -0.2126,-1.10396 -1.24982,-1.75 -2.80963,-1.75 -1.55981,0 -2.59703,0.64604 -2.80963,1.75 -0.26332,1.3673 0.3511,1.75 2.80963,1.75 2.45853,0 3.07295,-0.3827 2.80963,-1.75 z m 4.34747,3.01905 c -0.14542,-4.84215 0.0342,-5.27895 2.41612,-5.87678 3.61114,-0.90634 4.60612,0.57824 4.16752,6.21822 l -0.38024,4.88951 -0.18025,-5.31955 c -0.16609,-4.90172 -0.35698,-5.29445 -2.43025,-5 -1.89303,0.26885 -2.34406,1.11281 -2.8429,5.31955 l -0.59289,5 -0.15711,-5.23095 z m 10.50957,4.06428 c -0.36667,-0.36666 -0.65978,-3.40416 -0.65136,-6.75 0.008,-3.34583 0.34592,-5.5883 0.75,-4.98327 0.40408,0.60503 1.40969,1.357 2.23469,1.67105 1.1948,0.45482 1.14393,0.58706 -0.25,0.64994 -1.39122,0.0628 -1.75,0.98649 -1.75,4.50563 0,3.37499 0.41576,4.53532 1.75,4.88399 1.40212,0.36642 1.43525,0.48039 0.16667,0.57333 -0.87084,0.0638 -1.88334,-0.184 -2.25,-0.55067 z m 6.6432,-4.83333 c -0.006,-3.3 0.17648,-4.77056 0.40466,-3.26791 0.22817,1.50265 0.23276,4.20265 0.0102,6 -0.22256,1.79735 -0.40925,0.56791 -0.41486,-2.73209 z m 4.93311,4.34298 c -1.69838,-1.69838 -1.56915,-7.3274 0.20198,-8.7973 0.79472,-0.65956 2.48222,-1.05216 3.75,-0.87244 2.05581,0.29143 2.30504,0.86737 2.30504,5.32676 0,4.59249 -0.20433,5.02388 -2.50702,5.29298 -1.37887,0.16113 -3.06637,-0.26637 -3.75,-0.95 z M 152,154.43358 c 0,-4.3916 -0.10529,-4.55431 -2.75,-4.25 -2.18289,0.25117 -2.81693,0.90095 -3.07457,3.15089 C 145.70405,157.45094 146.60447,159 149.46862,159 151.80756,159 152,158.65286 152,154.43358 z M 156.34281,152.5 c 0.004,-4.4 0.17944,-6.07561 0.39069,-3.72357 0.21124,2.35204 0.20827,5.95204 -0.007,8 -0.21487,2.04796 -0.38771,0.12357 -0.38408,-4.27643 z m 9.96706,2 c -0.006,-3.3 0.17648,-4.77056 0.40466,-3.26791 0.22817,1.50265 0.23276,4.20265 0.0102,6 -0.22256,1.79735 -0.40925,0.56791 -0.41486,-2.73209 z m 4.84723,0.76905 c -0.14542,-4.84215 0.0342,-5.27895 2.41612,-5.87678 3.61114,-0.90634 4.60612,0.57824 4.16752,6.21822 l -0.38024,4.88951 -0.18025,-5.31955 c -0.16609,-4.90172 -0.35698,-5.29445 -2.43025,-5 -1.89303,0.26885 -2.34406,1.11281 -2.8429,5.31955 l -0.59289,5 -0.15711,-5.23095 z m 14.89711,3.29627 c -1.66181,-2.00236 -0.90919,-7.64136 1.19579,-8.95936 2.5652,-1.60616 5.18313,0.42031 5.56823,4.31021 C 193.1758,157.52799 191.62436,160 189,160 c -0.96531,0 -2.29091,-0.6456 -2.94579,-1.43468 z M 191.5,154.5 c 0,-3.6 -0.25,-4 -2.5,-4 -2.00233,0 -2.56461,0.56425 -2.82457,2.83447 -0.47404,4.13971 0.48471,5.85279 3.0701,5.48567 C 191.15572,158.54889 191.5,157.88916 191.5,154.5 z m 5.7,4.3 c -0.66,-0.66 -1.1293,-3.2475 -1.0429,-5.75 l 0.15711,-4.55 0.59289,5 c 0.49041,4.1357 0.93862,5 2.5929,5 1.65428,0 2.10249,-0.8643 2.5929,-5 l 0.59289,-5 0.15711,4.55 c 0.15212,4.40577 -1.07163,6.95 -3.3429,6.95 -0.605,0 -1.64,-0.54 -2.3,-1.2 z m 9.22197,-4.29063 c 0.0661,-4.22681 0.38413,-5.02155 2.07803,-5.19259 1.46256,-0.14768 1.54319,-0.0659 0.30005,0.30432 -1.20683,0.35941 -1.80962,1.86567 -2.07803,5.19259 l -0.37808,4.68631 0.078,-4.99063 z M 219.34281,152.5 c 0.004,-4.4 0.17944,-6.07561 0.39069,-3.72357 0.21124,2.35204 0.20827,5.95204 -0.007,8 -0.21487,2.04796 -0.38771,0.12357 -0.38408,-4.27643 z m 3.96706,2 c -0.006,-3.3 0.17648,-4.77056 0.40466,-3.26791 0.22817,1.50265 0.23276,4.20265 0.0102,6 -0.22256,1.79735 -0.40925,0.56791 -0.41486,-2.73209 z m 6.95172,4.29238 c -1.24034,-1.52136 -3.40017,-8.98714 -2.77951,-9.60779 0.23532,-0.23533 0.95348,1.65952 1.59589,4.21077 0.64241,2.55125 1.53834,4.86751 1.99095,5.14724 0.77557,0.47932 2.9134,-5.58056 2.9255,-8.2926 0.003,-0.6875 0.41154,-1.25 0.90771,-1.25 0.98166,0 -1.4189,8.91677 -2.76219,10.26006 -0.45359,0.45359 -1.29885,0.24313 -1.87835,-0.46768 z m 8.35083,-0.0865 c -2.2542,-1.64831 -1.84084,-7.54808 0.63758,-9.0999 2.25743,-1.41345 5.12496,0.25786 5.56955,3.24617 0.27608,1.85569 -0.16601,2.14787 -3.25,2.14787 -2.48586,0 -3.56955,0.44961 -3.56955,1.48095 0,1.69864 4.28917,3.0764 6.09767,1.95868 0.7708,-0.47637 0.95185,-0.32877 0.49782,0.40586 -0.94656,1.53157 -3.78827,1.46525 -5.98307,-0.13963 z m 5.19721,-6.45586 c -0.2126,-1.10396 -1.24982,-1.75 -2.80963,-1.75 -1.55981,0 -2.59703,0.64604 -2.80963,1.75 -0.26332,1.3673 0.3511,1.75 2.80963,1.75 2.45853,0 3.07295,-0.3827 2.80963,-1.75 z m 5.60787,6.88169 c 3.55416,-0.76954 4.43946,-2.72493 1.63649,-3.61456 -2.58758,-0.82126 -4.61409,-4.35703 -3.26845,-5.70267 0.53395,-0.53395 2.26314,-0.77806 3.84264,-0.54247 2.82439,0.42127 2.81814,0.43082 -0.37818,0.57818 -4.04602,0.18653 -4.11882,1.39499 -0.25,4.14983 4.61553,3.28655 3.46136,6.19781 -2.33179,5.88169 -1.62714,-0.0888 -1.44016,-0.27595 0.74929,-0.75 z m 13.82548,-0.28871 c -1.69838,-1.69838 -1.56915,-7.3274 0.20198,-8.7973 0.79472,-0.65956 2.48222,-1.05216 3.75,-0.87244 2.05581,0.29143 2.30504,0.86737 2.30504,5.32676 0,4.59249 -0.20433,5.02388 -2.50702,5.29298 -1.37887,0.16113 -3.06637,-0.26637 -3.75,-0.95 z M 269,154.43358 c 0,-4.3916 -0.10529,-4.55431 -2.75,-4.25 -2.18289,0.25117 -2.81693,0.90095 -3.07457,3.15089 C 262.70405,157.45094 263.60447,159 266.46862,159 268.80756,159 269,158.65286 269,154.43358 z m 4.1571,0.83547 c -0.14542,-4.84215 0.0342,-5.27895 2.41612,-5.87678 3.61114,-0.90634 4.60612,0.57824 4.16752,6.21822 l -0.38024,4.88951 -0.18025,-5.31955 c -0.16609,-4.90172 -0.35698,-5.29445 -2.43025,-5 -1.89303,0.26885 -2.34406,1.11281 -2.8429,5.31955 l -0.59289,5 -0.15711,-5.23095 z m 10.08588,3.57393 c -1.58532,-1.58532 -1.61261,-7.07335 -0.043,-8.64298 0.66,-0.66 2.2037,-1.2 3.43045,-1.2 1.5107,0 2.37823,-0.72606 2.68842,-2.25 0.25188,-1.2375 0.39568,1.125 0.31955,5.25 -0.13322,7.21822 -0.23261,7.51101 -2.64544,7.79298 -1.37887,0.16113 -3.06637,-0.26637 -3.75,-0.95 z M 289,154.43358 c 0,-4.3916 -0.10529,-4.55431 -2.75,-4.25 -2.18289,0.25117 -2.81693,0.90095 -3.07457,3.15089 C 282.70405,157.45094 283.60447,159 286.46862,159 288.80756,159 289,158.65286 289,154.43358 z m 10.46119,3.20755 c -1.64367,-2.34666 -1.95434,-7.21831 -0.51698,-8.10665 0.52803,-0.32634 1.07899,1.51695 1.25,4.18199 0.23069,3.59524 0.73555,4.84715 2.05579,5.09786 1.48252,0.28152 1.75,-0.45215 1.75,-4.80002 0,-3.16692 0.38295,-4.89567 1,-4.51431 0.55,0.33992 1,2.64947 1,5.13234 0,3.75927 0.29269,4.45873 1.75,4.18199 1.32024,-0.25071 1.8251,-1.50262 2.05579,-5.09786 0.31761,-4.94965 2.19421,-5.70224 2.19421,-0.87996 0,4.55764 -2.37011,6.89076 -7,6.89076 -3.00012,0 -4.46373,-0.55125 -5.53881,-2.08614 z m 16.15123,1.06473 c -2.2542,-1.64831 -1.84084,-7.54808 0.63758,-9.0999 2.25743,-1.41345 5.12496,0.25786 5.56955,3.24617 0.27608,1.85569 -0.16601,2.14787 -3.25,2.14787 -2.48586,0 -3.56955,0.44961 -3.56955,1.48095 0,1.69864 4.28917,3.0764 6.09767,1.95868 0.7708,-0.47637 0.95185,-0.32877 0.49782,0.40586 -0.94656,1.53157 -3.78827,1.46525 -5.98307,-0.13963 z m 5.19721,-6.45586 c -0.2126,-1.10396 -1.24982,-1.75 -2.80963,-1.75 -1.55981,0 -2.59703,0.64604 -2.80963,1.75 -0.26332,1.3673 0.3511,1.75 2.80963,1.75 2.45853,0 3.07295,-0.3827 2.80963,-1.75 z M 330.2,158.8 c -0.66,-0.66 -1.2,-2.595 -1.2,-4.3 0,-3.62679 1.57656,-5.54004 4.45,-5.40032 1.71731,0.0835 1.64428,0.21254 -0.45,0.79508 -2.12182,0.59021 -2.5,1.28686 -2.5,4.60524 0,3.31838 0.37818,4.01503 2.5,4.60524 2.09428,0.58254 2.16731,0.71158 0.45,0.79508 -1.1275,0.0548 -2.59,-0.44032 -3.25,-1.10032 z m 8.04298,0.043 c -1.69838,-1.69838 -1.56915,-7.3274 0.20198,-8.7973 0.79472,-0.65956 2.48222,-1.05216 3.75,-0.87244 2.05581,0.29143 2.30504,0.86737 2.30504,5.32676 0,4.59249 -0.20433,5.02388 -2.50702,5.29298 -1.37887,0.16113 -3.06637,-0.26637 -3.75,-0.95 z M 344,154.43358 c 0,-4.3916 -0.10529,-4.55431 -2.75,-4.25 -2.18289,0.25117 -2.81693,0.90095 -3.07457,3.15089 C 337.70405,157.45094 338.60447,159 341.46862,159 343.80756,159 344,158.65286 344,154.43358 z m 5.42197,0.0758 c 0.0661,-4.22681 0.38413,-5.02155 2.07803,-5.19259 1.46256,-0.14768 1.54319,-0.0659 0.30005,0.30432 -1.20683,0.35941 -1.80962,1.86567 -2.07803,5.19259 l -0.37808,4.68631 0.078,-4.99063 z m 6.19045,4.19649 c -2.2542,-1.64831 -1.84084,-7.54808 0.63758,-9.0999 2.25743,-1.41345 5.12496,0.25786 5.56955,3.24617 0.27608,1.85569 -0.16601,2.14787 -3.25,2.14787 -2.48586,0 -3.56955,0.44961 -3.56955,1.48095 0,1.69864 4.28917,3.0764 6.09767,1.95868 0.7708,-0.47637 0.95185,-0.32877 0.49782,0.40586 -0.94656,1.53157 -3.78827,1.46525 -5.98307,-0.13963 z m 5.19721,-6.45586 c -0.2126,-1.10396 -1.24982,-1.75 -2.80963,-1.75 -1.55981,0 -2.59703,0.64604 -2.80963,1.75 -0.26332,1.3673 0.3511,1.75 2.80963,1.75 2.45853,0 3.07295,-0.3827 2.80963,-1.75 z m 10.43335,6.59298 c -1.69838,-1.69838 -1.56915,-7.3274 0.20198,-8.7973 0.79472,-0.65956 2.48222,-1.05216 3.75,-0.87244 2.05581,0.29143 2.30504,0.86737 2.30504,5.32676 0,4.59249 -0.20433,5.02388 -2.50702,5.29298 -1.37887,0.16113 -3.06637,-0.26637 -3.75,-0.95 z M 377,154.43358 c 0,-4.3916 -0.10529,-4.55431 -2.75,-4.25 -2.18289,0.25117 -2.81693,0.90095 -3.07457,3.15089 C 370.70405,157.45094 371.60447,159 374.46862,159 376.80756,159 377,158.65286 377,154.43358 z m 4.66667,4.89975 c -0.36667,-0.36666 -0.60539,-3.85416 -0.53049,-7.75 0.0749,-3.89583 0.3312,-6.07083 0.56955,-4.83333 0.25031,1.29955 1.16435,2.25 2.16382,2.25 2.60023,0 4.13045,2.0376 4.13045,5.5 0,1.705 -0.54,3.64 -1.2,4.3 -1.30743,1.30743 -4.072,1.59466 -5.13333,0.53333 z M 386.5,154.5 c 0,-3.3868 -0.34493,-4.04899 -2.25,-4.31955 -2.05592,-0.29199 -2.25,0.0806 -2.25,4.31955 0,4.23894 0.19408,4.61154 2.25,4.31955 1.90507,-0.27056 2.25,-0.93275 2.25,-4.31955 z m 4.55421,4.06532 c -1.66181,-2.00236 -0.90919,-7.64136 1.19579,-8.95936 2.5652,-1.60616 5.18313,0.42031 5.56823,4.31021 C 398.1758,157.52799 396.62436,160 394,160 c -0.96531,0 -2.29091,-0.6456 -2.94579,-1.43468 z M 396.5,154.5 c 0,-3.6 -0.25,-4 -2.5,-4 -2.00233,0 -2.56461,0.56425 -2.82457,2.83447 -0.47404,4.13971 0.48471,5.85279 3.0701,5.48567 C 396.15572,158.54889 396.5,157.88916 396.5,154.5 z m 5.7,4.3 c -0.66,-0.66 -1.1293,-3.2475 -1.0429,-5.75 l 0.15711,-4.55 0.59289,5 c 0.49041,4.1357 0.93862,5 2.5929,5 1.65428,0 2.10249,-0.8643 2.5929,-5 l 0.59289,-5 0.15711,4.55 c 0.15212,4.40577 -1.07163,6.95 -3.3429,6.95 -0.605,0 -1.64,-0.54 -2.3,-1.2 z m 9.46667,0.53333 c -0.36667,-0.36666 -0.65978,-3.40416 -0.65136,-6.75 0.008,-3.34583 0.34592,-5.5883 0.75,-4.98327 0.40408,0.60503 1.40969,1.357 2.23469,1.67105 1.1948,0.45482 1.14393,0.58706 -0.25,0.64994 -1.39122,0.0628 -1.75,0.98649 -1.75,4.50563 0,3.37499 0.41576,4.53532 1.75,4.88399 1.40212,0.36642 1.43525,0.48039 0.16667,0.57333 -0.87084,0.0638 -1.88334,-0.184 -2.25,-0.55067 z M 424.30987,154.5 c -0.006,-3.3 0.17648,-4.77056 0.40466,-3.26791 0.22817,1.50265 0.23276,4.20265 0.0102,6 -0.22256,1.79735 -0.40925,0.56791 -0.41486,-2.73209 z m 4.3568,4.83333 c -0.36667,-0.36666 -0.65978,-3.40416 -0.65136,-6.75 0.008,-3.34583 0.34592,-5.5883 0.75,-4.98327 0.40408,0.60503 1.40969,1.357 2.23469,1.67105 1.1948,0.45482 1.14393,0.58706 -0.25,0.64994 -1.39122,0.0628 -1.75,0.98649 -1.75,4.50563 0,3.37499 0.41576,4.53532 1.75,4.88399 1.40212,0.36642 1.43525,0.48039 0.16667,0.57333 -0.87084,0.0638 -1.88334,-0.184 -2.25,-0.55067 z M 187.01104,121.67398 c -10.44468,-6.09255 -17.62364,-10.90091 -17.82333,-11.93779 -0.1839,-0.9549 0.26114,-1.73289 0.98897,-1.72885 0.72782,0.004 9.11769,4.50147 18.64415,9.9943 l 17.32083,9.98697 17.31941,-9.99431 c 9.52568,-5.49686 17.8188,-9.9943 18.42917,-9.9943 0.61037,0 1.1018,0.7875 1.09208,1.75 -0.0123,1.21237 -5.51416,4.89896 -17.90895,12 -9.84019,5.6375 -18.49474,10.22201 -19.23232,10.18779 -0.73758,-0.0342 -9.21108,-4.65293 -18.83001,-10.26381 z M 0,80 0,58 9.5,58 c 9.466667,0 9.5,0.0088 9.5,2.5 0,2.428571 -0.2,2.5 -7,2.5 l -7,0 0,7 0,7 4,0 c 3.6,0 4,0.25 4,2.5 0,2.25 -0.4,2.5 -4,2.5 l -4,0 0,7.5 0,7.5 7,0 c 6.8,0 7,0.07143 7,2.5 0,2.49123 -0.03333,2.5 -9.5,2.5 L 0,102 0,80 z m 27,-0.06642 0,-22.066423 2.724694,0.316423 C 32.261076,58.478131 32.703221,59.294802 36.122107,70 L 39.794826,81.5 40.147413,70 40.5,58.5 43.269693,58.181677 46.039385,57.863355 45.769693,79.681677 45.5,101.5 l -2.61548,0.30344 c -2.47764,0.28745 -2.757248,-0.16051 -5.305473,-8.499998 C 31.90229,74.725327 32.167672,74.920907 32.078947,89.25 L 32,102 29.5,102 27,102 27,79.933578 z M 55,80 55,58 65.069551,58 c 9.870512,0 10.063235,0.04447 9.75,2.25 -0.293227,2.064652 -0.916782,2.274203 -7.569551,2.54381 L 60,63.087619 60,70.04381 60,77 l 4.5,0 c 4.105085,0 4.5,0.214351 4.5,2.442502 0,2.158631 -0.493942,2.47824 -4.25,2.75 L 60.5,82.5 l 0,7 0,7 7.25,0.29381 c 6.952436,0.28175 7.25,0.394619 7.25,2.75 C 75,101.98832 74.952436,102 65,102 l -10,0 0,-22 z m 27.447199,20.723 C 82.177682,100.02065 82.079306,90.23315 82.228584,78.973 L 82.5,58.5 90.138514,58.209943 C 100.42844,57.819203 101,58.439627 101,70 101,79.072138 99.884624,82 96.428571,82 94.454419,82 94.582712,82.788936 98,91.663498 101.62603,101.08015 101.6783,102 98.587425,102 c -2.077327,0 -2.791773,-1.00745 -5.14142,-7.25 -5.477053,-14.551444 -5.273406,-14.437556 -5.364431,-3 L 88,102 l -2.531385,0 c -1.392261,0 -2.751899,-0.57465 -3.021416,-1.277 z M 95.393011,75.418213 C 95.726855,74.548229 96,72.110034 96,70 96,64.175887 95.2261,63 91.393011,63 L 88,63 l 0,7 0,7 3.393011,0 c 2.171492,0 3.611534,-0.56946 4,-1.581787 z M 111.40499,99.895012 C 109.68194,97.991068 109.5,96.090937 109.5,80 c 0,-19.934835 0.44363,-21.335996 7.15395,-22.59486 C 122.96828,56.220566 128,59.781306 128,65.434259 c 0,3.562665 -4.49607,3.709703 -5.38296,0.176042 -0.72986,-2.908 -3.08797,-3.96382 -5.71402,-2.558398 -1.83111,0.979981 -1.93508,2.04887 -1.67756,17.246414 0.27218,16.062493 0.29434,16.20449 2.57958,16.528447 C 121.46524,97.345635 123,95.292611 123,89.877555 123,86.208617 122.62831,85 121.5,85 c -0.93333,0 -1.5,-0.944444 -1.5,-2.5 0,-2.25 0.4,-2.5 4,-2.5 l 4,0 0,9 c 0,11.28685 -1.23149,13 -9.34501,13 -4.16389,0 -5.76598,-0.46516 -7.25,-2.104988 z M 141,91.162814 c 0,-9.154212 -0.46412,-12.37661 -2.9886,-20.75 C 134.38501,58.384501 134.36806,58 137.46422,58 c 2.15328,0 2.70418,0.78865 4.36582,6.25 l 1.9016,6.25 1.79813,-6.25 c 1.67405,-5.818711 1.99849,-6.25 4.70157,-6.25 2.30492,0 2.79174,0.360746 2.36161,1.75 C 146.10698,80.698628 146,81.215835 146,91.622989 L 146,102 l -2.5,0 -2.5,0 0,-10.837186 z M 262,80 l 0,-22 2.84167,0 c 2.6242,0 2.98152,0.478313 4.66905,6.25 1.00505,3.4375 2.14671,6.622913 2.53702,7.078696 0.39031,0.455782 1.68564,-2.384542 2.87852,-6.311833 2.04483,-6.732153 2.32342,-7.122694 4.8713,-6.828696 L 282.5,58.5 l 0,21.5 0,21.5 -2.75,0.31642 L 277,102.13284 276.9198,89.316422 276.8396,76.5 l -1.66983,4.927713 c -0.91841,2.710243 -2.18662,5.095005 -2.81825,5.299473 -0.66044,0.213793 -1.99656,-2.304965 -3.14446,-5.927714 L 267.21107,74.5 267.10554,88.25 267,102 l -2.5,0 -2.5,0 0,-22 z m 28.06938,19.75 c 0.0382,-1.2375 1.50226,-11.025 3.25357,-21.75 3.17349,-19.434492 3.1931,-19.501033 5.83853,-19.807536 2.21291,-0.256391 2.74742,0.159372 3.21408,2.5 0.6632,3.3264 6.62444,40.140836 6.62444,40.910086 0,0.29166 -1.23536,0.3879 -2.74525,0.21387 -2.17103,-0.25023 -2.85175,-0.94393 -3.25438,-3.31642 -0.42337,-2.4947 -1.03533,-3.051254 -3.63327,-3.304298 -2.86858,-0.279407 -3.17869,-0.01355 -3.79094,3.25 C 295.02724,101.3717 294.47545,102 292.45469,102 c -1.89949,0 -2.439,-0.5089 -2.38531,-2.25 z m 11.62915,-11.093229 c -0.28349,-0.738775 -0.85446,-4.001275 -1.26882,-7.25 -0.81718,-6.407059 -1.4271,-5.578312 -2.8429,3.862893 C 296.89163,89.905468 296.93078,90 299.54572,90 c 1.82253,0 2.50488,-0.425746 2.15281,-1.343229 z M 318,82.563358 318,63.126717 314.75,62.813358 C 312.25905,62.573186 311.42537,61.974501 311.18045,60.25 310.86816,58.051152 311.07846,58 320.43045,58 329.9713,58 330,58.0075 330,60.5 c 0,2.190476 -0.43333,2.5 -3.5,2.5 l -3.5,0 0,19.5 0,19.5 -2.5,0 -2.5,0 0,-19.436642 z m 24,0.0031 L 342,63 l -3,0 c -2.53333,0 -3,-0.388889 -3,-2.5 0,-2.481481 0.0667,-2.5 9,-2.5 8.93333,0 9,0.01852 9,2.5 0,2.107083 -0.46811,2.5 -2.97841,2.5 l -2.9784,0 -0.2716,19.25 -0.27159,19.25 -2.75,0.31642 -2.75,0.31642 0,-19.566418 z M 362,80 l 0,-22 9.5,0 c 9.46667,0 9.5,0.0088 9.5,2.5 0,2.428571 -0.2,2.5 -7,2.5 l -7,0 0,6.942502 0,6.942502 4.25,0.307498 c 3.48083,0.251847 4.25,0.669458 4.25,2.307498 0,1.63804 -0.76917,2.055651 -4.25,2.307498 l -4.25,0.307498 0,7.442502 0,7.442502 7,0 c 6.8,0 7,0.07143 7,2.5 0,2.49123 -0.0333,2.5 -9.5,2.5 l -9.5,0 0,-22 z m 27,0 0,-22 7.9433,0 C 407.0348,58 408,59.047551 408,70 c 0,8.188917 -1.59797,12 -5.03155,12 -1.79622,0 -1.72178,0.524391 1.17112,8.25 4.63136,12.36821 4.58417,11.96243 1.34667,11.57969 -2.52282,-0.29826 -3.12056,-1.21162 -6.26934,-9.57969 C 397.30255,87.1625 395.34561,83 394.86813,83 394.39066,83 394,87.275 394,92.5 c 0,9.46667 -0.009,9.5 -2.5,9.5 l -2.5,0 0,-22 z m 12.5,-10 0,-6.5 -3.75,-0.310365 -3.75,-0.310366 0,6.393699 c 0,3.516534 0.32133,6.715026 0.71406,7.107759 0.39273,0.392733 2.08023,0.580233 3.75,0.416666 L 401.5,76.5 l 0,-6.5 z m 16.5,30 c -1.11111,-1.111111 -2,-3.333333 -2,-5 0,-2.49707 0.40093,-3 2.39159,-3 1.73273,0 2.56881,0.706096 3.03488,2.563057 0.52181,2.079059 1.156,2.50394 3.35841,2.25 2.57505,-0.296907 2.73093,-0.621142 3.02165,-6.285137 C 428.14105,84.010502 426.84495,82 422.30887,82 417.70447,82 416,78.787883 416,70.110784 416,60.003662 417.64915,57.5 424.30666,57.5 429.99021,57.5 433,59.977188 433,64.654988 433,67.556334 432.66841,68 430.5,68 c -1.81841,0 -2.5,-0.535679 -2.5,-1.964816 0,-1.080649 -0.86875,-2.429757 -1.93055,-2.998018 -3.00072,-1.605936 -5.0725,1.175046 -5.05414,6.784263 0.0192,5.878206 0.60336,6.728051 5.20595,7.574249 C 431.59559,78.383764 433,80.995116 433,90 c 0,10.01613 -1.33195,12 -8.0567,12 -3.60997,0 -5.48275,-0.53945 -6.9433,-2 z M 179,81.5 179,68 l -2.5,0 c -1.55556,0 -2.5,-0.566667 -2.5,-1.5 0,-1.190476 1.44444,-1.5 7,-1.5 5.55556,0 7,0.309524 7,1.5 0,0.933333 -0.94444,1.5 -2.5,1.5 l -2.5,0 0,13.5 c 0,12.833333 -0.0988,13.5 -2,13.5 -1.90123,0 -2,-0.666667 -2,-13.5 z M 192,80 c 0,-14.333333 0.0889,-15 2,-15 1.79487,0 2,0.666667 2,6.5 0,6.266667 0.0897,6.5 2.5,6.5 2.41026,0 2.5,-0.233333 2.5,-6.5 0,-5.833333 0.20513,-6.5 2,-6.5 1.91154,0 2,0.666667 2,15.073324 0,13.815877 -0.14599,15.045514 -1.75,14.739957 -1.40383,-0.267423 -1.80889,-1.567712 -2.04772,-6.573324 C 200.92193,82.363984 200.76152,82 198.45228,82 196.10076,82 196,82.267061 196,88.5 c 0,5.833333 -0.20513,6.5 -2,6.5 -1.91111,0 -2,-0.666667 -2,-15 z m 18.02669,14.25 c 0.0147,-0.4125 1.05788,-7.05 2.31823,-14.75 2.02624,-12.37916 2.52569,-14.034578 4.31393,-14.298665 1.85463,-0.273891 2.20304,0.804477 4.20013,13 C 223.52647,94.490681 223.53074,95 221,95 c -1.33333,0 -2,-0.666667 -2,-2 0,-1.363144 -0.66667,-2 -2.09362,-2 -1.25262,0 -2.30371,0.803397 -2.61663,2 -0.48122,1.840174 -4.32416,2.966987 -4.26306,1.25 z m 7.90302,-9.5 C 217.89106,83.5125 217.47269,81.6 217,80.5 c -0.76972,-1.791226 -0.86677,-1.721473 -0.92971,0.668213 -0.0387,1.467516 -0.34343,3.380016 -0.67728,4.25 -0.39831,1.037983 -0.0545,1.581787 1,1.581787 1.02067,0 1.58135,-0.820931 1.5367,-2.25 z M 229,81.5 C 229,68.666667 228.9012,68 227,68 c -1.11111,0 -2,-0.666667 -2,-1.5 0,-1.179487 1.38889,-1.5 6.5,-1.5 4.97065,0 6.5,0.336563 6.5,1.430449 0,0.786747 -1.0125,1.574247 -2.25,1.75 -2.18758,0.310686 -2.25774,0.687141 -2.52903,13.569551 -0.26162,12.423914 -0.4019,13.25 -2.25,13.25 C 229.10701,95 229,94.267065 229,81.5 z M 169.34508,50.456872 c -0.32569,-0.848721 -0.42406,-1.685158 -0.21862,-1.85875 C 171.17391,46.868131 205.03174,28 206.08867,28 c 0.77292,0 9.39416,4.588699 19.15832,10.197109 C 237.91571,45.473863 243,48.910549 243,50.197109 243,51.188699 242.58973,52 242.08829,52 241.58685,52 233.3007,47.469255 223.67463,41.931679 L 206.17267,31.863357 188.61911,41.931679 C 178.96466,47.469255 170.81168,52 170.50139,52 c -0.31029,0 -0.83063,-0.694408 -1.15631,-1.543128 z"
       id="path3053"
       inkscape:connector-curvature="0" />
    <path
       style="fill:#484848"
       d="m 41.651969,163.24589 c -0.256336,-0.41476 0.911776,-0.75226 2.595805,-0.75 1.684028,0.002 3.2547,-0.55839 3.490381,-1.24589 C 48.002191,160.47979 47.251873,160 45.783333,160 42.536205,160 41,158.20872 41,154.42244 c 0,-3.72489 1.962113,-5.70749 5.194958,-5.2492 2.064025,0.29259 2.336663,0.93681 2.607463,6.16113 0.178368,3.4411 -0.179511,6.41507 -0.872444,7.25 -1.239879,1.49397 -5.486948,1.94148 -6.278008,0.66152 z M 48,154.43358 c 0,-4.3916 -0.105286,-4.55431 -2.75,-4.25 -2.182889,0.25117 -2.816934,0.90095 -3.074574,3.15089 C 41.704052,157.45094 42.604468,159 45.468615,159 47.807563,159 48,158.65286 48,154.43358 z m 4.633731,8.7828 c -0.266367,-0.43099 0.675648,-0.76849 2.093366,-0.75 1.417718,0.0185 2.771596,-0.52888 3.008619,-1.21638 0.244804,-0.71007 -0.382542,-1.25 -1.452383,-1.25 -3.04721,0 -4.293708,-2.09953 -4.126229,-6.95 l 0.157103,-4.55 0.592897,5 c 0.493845,4.16469 0.959694,5.05219 2.788472,5.31242 1.987386,0.28279 2.230607,-0.19132 2.565017,-5 0.362875,-5.21798 0.372731,-5.19598 0.554425,1.23758 0.112899,3.99762 -0.282629,7.01761 -1.015018,7.75 -1.354566,1.35457 -4.433094,1.60268 -5.166269,0.41638 z M 5.2,158.8 C 4.54,158.14 4,155.03814 4,151.90699 c 0,-6.00988 0.8056412,-7.03566 5.3317875,-6.78868 1.5704385,0.0857 1.3411155,0.29425 -0.8317875,0.75644 -2.0997613,0.44663 -3.0958907,1.31136 -3.319551,2.88168 -0.2725561,1.91362 0.1686396,2.26711 3,2.40361 L 11.5,151.32007 8.1916913,151.72774 c -3.0458683,0.37534 -3.2838513,0.65977 -3,3.58559 0.2543035,2.62126 0.833807,3.28934 3.3083087,3.81398 2.78155,0.58974 2.814318,0.64468 0.45,0.75438 C 7.5475,159.94676 5.86,159.46 5.2,158.8 z m 8.957104,-3.53095 c -0.145427,-4.84215 0.03415,-5.27895 2.416112,-5.87678 3.611144,-0.90634 4.606124,0.57824 4.167521,6.21822 L 20.360496,160.5 20.180248,155.18045 c -0.16609,-4.90172 -0.356976,-5.29445 -2.430248,-5 -1.893031,0.26885 -2.344065,1.11281 -2.842896,5.31955 l -0.592897,5 -0.157103,-5.23095 z m 11.455314,3.43681 c -2.2542,-1.64831 -1.840835,-7.54808 0.637582,-9.0999 2.257433,-1.41345 5.124964,0.25786 5.569551,3.24617 C 32.095633,154.70782 31.653535,155 28.569551,155 26.083693,155 25,155.44961 25,156.48095 c 0,1.69864 4.289171,3.0764 6.097673,1.95868 0.770796,-0.47637 0.951846,-0.32877 0.497819,0.40586 -0.946559,1.53157 -3.788275,1.46525 -5.983074,-0.13963 z M 30.809629,152.25 C 30.597025,151.14604 29.559812,150.5 28,150.5 c -1.559812,0 -2.597025,0.64604 -2.809629,1.75 C 24.927052,153.6173 25.54147,154 28,154 c 2.45853,0 3.072948,-0.3827 2.809629,-1.75 z m 4.61234,2.25937 c 0.06609,-4.22681 0.384135,-5.02155 2.078031,-5.19259 1.462562,-0.14768 1.543192,-0.0659 0.300051,0.30432 -1.206831,0.35941 -1.809622,1.86567 -2.078031,5.19259 l -0.378082,4.68631 0.07803,-4.99063 z m 32.8879,-0.009 c -0.0056,-3.3 0.176483,-4.77056 0.404657,-3.26791 0.228174,1.50265 0.232767,4.20265 0.0102,6 C 68.50217,159.02944 68.315482,157.8 68.309869,154.5 z m 5.107633,4.63169 c 3.554158,-0.76954 4.439459,-2.72493 1.636484,-3.61456 -2.587575,-0.82126 -4.614081,-4.35703 -3.268449,-5.70267 0.53395,-0.53395 2.263138,-0.77806 3.842641,-0.54247 2.824391,0.42127 2.818145,0.43082 -0.378178,0.57818 -4.046021,0.18653 -4.118822,1.39499 -0.25,4.14983 4.61553,3.28655 3.461365,6.19781 -2.331787,5.88169 -1.627147,-0.0888 -1.440165,-0.27595 0.749289,-0.75 z m 13.194916,-0.42583 c -2.2542,-1.64831 -1.840835,-7.54808 0.637582,-9.0999 2.257433,-1.41345 5.124964,0.25786 5.569551,3.24617 0.276082,1.85532 -0.166016,2.1475 -3.25,2.1475 C 87.083693,155 86,155.44961 86,156.48095 c 0,1.69864 4.289171,3.0764 6.097673,1.95868 0.770796,-0.47637 0.951846,-0.32877 0.497819,0.40586 -0.946559,1.53157 -3.788275,1.46525 -5.983074,-0.13963 z M 91.809629,152.25 C 91.597025,151.14604 90.559812,150.5 89,150.5 c -1.559812,0 -2.597025,0.64604 -2.809629,1.75 C 85.927052,153.6173 86.54147,154 89,154 c 2.45853,0 3.072948,-0.3827 2.809629,-1.75 z m 5.607873,6.88169 c 3.554158,-0.76954 4.439458,-2.72493 1.636484,-3.61456 -2.587575,-0.82126 -4.614081,-4.35703 -3.268449,-5.70267 0.53395,-0.53395 2.263138,-0.77806 3.842641,-0.54247 2.824392,0.42127 2.818142,0.43082 -0.378178,0.57818 -4.046021,0.18653 -4.118822,1.39499 -0.25,4.14983 4.61553,3.28655 3.46136,6.19781 -2.331787,5.88169 -1.627147,-0.0888 -1.440165,-0.27595 0.749289,-0.75 z m 8.999998,0 c 3.55416,-0.76954 4.43946,-2.72493 1.63649,-3.61456 -2.58758,-0.82126 -4.61409,-4.35703 -3.26845,-5.70267 0.53395,-0.53395 2.26314,-0.77806 3.84264,-0.54247 2.82439,0.42127 2.81814,0.43082 -0.37818,0.57818 -4.04602,0.18653 -4.11882,1.39499 -0.25,4.14983 4.61553,3.28655 3.46136,6.19781 -2.33179,5.88169 -1.62714,-0.0888 -1.44016,-0.27595 0.74929,-0.75 z m 8.19492,-0.42583 c -2.2542,-1.64831 -1.84084,-7.54808 0.63758,-9.0999 2.25743,-1.41345 5.12496,0.25786 5.56955,3.24617 0.27608,1.85569 -0.16601,2.14787 -3.25,2.14787 -2.48586,0 -3.56955,0.44961 -3.56955,1.48095 0,1.69864 4.28917,3.0764 6.09767,1.95868 0.7708,-0.47637 0.95185,-0.32877 0.49782,0.40586 -0.94656,1.53157 -3.78827,1.46525 -5.98307,-0.13963 z m 5.19721,-6.45586 c -0.2126,-1.10396 -1.24982,-1.75 -2.80963,-1.75 -1.55981,0 -2.59703,0.64604 -2.80963,1.75 -0.26332,1.3673 0.3511,1.75 2.80963,1.75 2.45853,0 3.07295,-0.3827 2.80963,-1.75 z m 4.34747,3.01905 c -0.14542,-4.84215 0.0342,-5.27895 2.41612,-5.87678 3.61114,-0.90634 4.60612,0.57824 4.16752,6.21822 l -0.38024,4.88951 -0.18025,-5.31955 c -0.16609,-4.90172 -0.35698,-5.29445 -2.43025,-5 -1.89303,0.26885 -2.34406,1.11281 -2.8429,5.31955 l -0.59289,5 -0.15711,-5.23095 z m 10.50957,4.06428 c -0.36667,-0.36666 -0.65978,-3.40416 -0.65136,-6.75 0.008,-3.34583 0.34592,-5.5883 0.75,-4.98327 0.40408,0.60503 1.40969,1.357 2.23469,1.67105 1.1948,0.45482 1.14393,0.58706 -0.25,0.64994 -1.39122,0.0628 -1.75,0.98649 -1.75,4.50563 0,3.37499 0.41576,4.53532 1.75,4.88399 1.40212,0.36642 1.43525,0.48039 0.16667,0.57333 -0.87084,0.0638 -1.88334,-0.184 -2.25,-0.55067 z m 6.6432,-4.83333 c -0.006,-3.3 0.17648,-4.77056 0.40466,-3.26791 0.22817,1.50265 0.23276,4.20265 0.0102,6 -0.22256,1.79735 -0.40925,0.56791 -0.41486,-2.73209 z m 4.93311,4.34298 c -1.69838,-1.69838 -1.56915,-7.3274 0.20198,-8.7973 0.79472,-0.65956 2.48222,-1.05216 3.75,-0.87244 2.05581,0.29143 2.30504,0.86737 2.30504,5.32676 0,4.59249 -0.20433,5.02388 -2.50702,5.29298 -1.37887,0.16113 -3.06637,-0.26637 -3.75,-0.95 z M 152,154.43358 c 0,-4.3916 -0.10529,-4.55431 -2.75,-4.25 -2.18289,0.25117 -2.81693,0.90095 -3.07457,3.15089 C 145.70405,157.45094 146.60447,159 149.46862,159 151.80756,159 152,158.65286 152,154.43358 z M 156.34281,152.5 c 0.004,-4.4 0.17944,-6.07561 0.39069,-3.72357 0.21124,2.35204 0.20827,5.95204 -0.007,8 -0.21487,2.04796 -0.38771,0.12357 -0.38408,-4.27643 z m 9.96706,2 c -0.006,-3.3 0.17648,-4.77056 0.40466,-3.26791 0.22817,1.50265 0.23276,4.20265 0.0102,6 -0.22256,1.79735 -0.40925,0.56791 -0.41486,-2.73209 z m 4.84723,0.76905 c -0.14542,-4.84215 0.0342,-5.27895 2.41612,-5.87678 3.61114,-0.90634 4.60612,0.57824 4.16752,6.21822 l -0.38024,4.88951 -0.18025,-5.31955 c -0.16609,-4.90172 -0.35698,-5.29445 -2.43025,-5 -1.89303,0.26885 -2.34406,1.11281 -2.8429,5.31955 l -0.59289,5 -0.15711,-5.23095 z m 14.89711,3.29627 c -1.66181,-2.00236 -0.90919,-7.64136 1.19579,-8.95936 2.5652,-1.60616 5.18313,0.42031 5.56823,4.31021 C 193.1758,157.52799 191.62436,160 189,160 c -0.96531,0 -2.29091,-0.6456 -2.94579,-1.43468 z M 191.5,154.5 c 0,-3.6 -0.25,-4 -2.5,-4 -2.00233,0 -2.56461,0.56425 -2.82457,2.83447 -0.47404,4.13971 0.48471,5.85279 3.0701,5.48567 C 191.15572,158.54889 191.5,157.88916 191.5,154.5 z m 5.7,4.3 c -0.66,-0.66 -1.1293,-3.2475 -1.0429,-5.75 l 0.15711,-4.55 0.59289,5 c 0.49041,4.1357 0.93862,5 2.5929,5 1.65428,0 2.10249,-0.8643 2.5929,-5 l 0.59289,-5 0.15711,4.55 c 0.15212,4.40577 -1.07163,6.95 -3.3429,6.95 -0.605,0 -1.64,-0.54 -2.3,-1.2 z m 9.22197,-4.29063 c 0.0661,-4.22681 0.38413,-5.02155 2.07803,-5.19259 1.46256,-0.14768 1.54319,-0.0659 0.30005,0.30432 -1.20683,0.35941 -1.80962,1.86567 -2.07803,5.19259 l -0.37808,4.68631 0.078,-4.99063 z M 219.34281,152.5 c 0.004,-4.4 0.17944,-6.07561 0.39069,-3.72357 0.21124,2.35204 0.20827,5.95204 -0.007,8 -0.21487,2.04796 -0.38771,0.12357 -0.38408,-4.27643 z m 3.96706,2 c -0.006,-3.3 0.17648,-4.77056 0.40466,-3.26791 0.22817,1.50265 0.23276,4.20265 0.0102,6 -0.22256,1.79735 -0.40925,0.56791 -0.41486,-2.73209 z m 6.95172,4.29238 c -1.24034,-1.52136 -3.40017,-8.98714 -2.77951,-9.60779 0.23532,-0.23533 0.95348,1.65952 1.59589,4.21077 0.64241,2.55125 1.53834,4.86751 1.99095,5.14724 0.77557,0.47932 2.9134,-5.58056 2.9255,-8.2926 0.003,-0.6875 0.41154,-1.25 0.90771,-1.25 0.98166,0 -1.4189,8.91677 -2.76219,10.26006 -0.45359,0.45359 -1.29885,0.24313 -1.87835,-0.46768 z m 8.35083,-0.0865 c -2.2542,-1.64831 -1.84084,-7.54808 0.63758,-9.0999 2.25743,-1.41345 5.12496,0.25786 5.56955,3.24617 0.27608,1.85569 -0.16601,2.14787 -3.25,2.14787 -2.48586,0 -3.56955,0.44961 -3.56955,1.48095 0,1.69864 4.28917,3.0764 6.09767,1.95868 0.7708,-0.47637 0.95185,-0.32877 0.49782,0.40586 -0.94656,1.53157 -3.78827,1.46525 -5.98307,-0.13963 z m 5.19721,-6.45586 c -0.2126,-1.10396 -1.24982,-1.75 -2.80963,-1.75 -1.55981,0 -2.59703,0.64604 -2.80963,1.75 -0.26332,1.3673 0.3511,1.75 2.80963,1.75 2.45853,0 3.07295,-0.3827 2.80963,-1.75 z m 5.60787,6.88169 c 3.55416,-0.76954 4.43946,-2.72493 1.63649,-3.61456 -2.58758,-0.82126 -4.61409,-4.35703 -3.26845,-5.70267 0.53395,-0.53395 2.26314,-0.77806 3.84264,-0.54247 2.82439,0.42127 2.81814,0.43082 -0.37818,0.57818 -4.04602,0.18653 -4.11882,1.39499 -0.25,4.14983 4.61553,3.28655 3.46136,6.19781 -2.33179,5.88169 -1.62714,-0.0888 -1.44016,-0.27595 0.74929,-0.75 z m 13.82548,-0.28871 c -1.69838,-1.69838 -1.56915,-7.3274 0.20198,-8.7973 0.79472,-0.65956 2.48222,-1.05216 3.75,-0.87244 2.05581,0.29143 2.30504,0.86737 2.30504,5.32676 0,4.59249 -0.20433,5.02388 -2.50702,5.29298 -1.37887,0.16113 -3.06637,-0.26637 -3.75,-0.95 z M 269,154.43358 c 0,-4.3916 -0.10529,-4.55431 -2.75,-4.25 -2.18289,0.25117 -2.81693,0.90095 -3.07457,3.15089 C 262.70405,157.45094 263.60447,159 266.46862,159 268.80756,159 269,158.65286 269,154.43358 z m 4.1571,0.83547 c -0.14542,-4.84215 0.0342,-5.27895 2.41612,-5.87678 3.61114,-0.90634 4.60612,0.57824 4.16752,6.21822 l -0.38024,4.88951 -0.18025,-5.31955 c -0.16609,-4.90172 -0.35698,-5.29445 -2.43025,-5 -1.89303,0.26885 -2.34406,1.11281 -2.8429,5.31955 l -0.59289,5 -0.15711,-5.23095 z m 10.08588,3.57393 c -1.58532,-1.58532 -1.61261,-7.07335 -0.043,-8.64298 0.66,-0.66 2.2037,-1.2 3.43045,-1.2 1.5107,0 2.37823,-0.72606 2.68842,-2.25 0.25188,-1.2375 0.39568,1.125 0.31955,5.25 -0.13322,7.21822 -0.23261,7.51101 -2.64544,7.79298 -1.37887,0.16113 -3.06637,-0.26637 -3.75,-0.95 z M 289,154.43358 c 0,-4.3916 -0.10529,-4.55431 -2.75,-4.25 -2.18289,0.25117 -2.81693,0.90095 -3.07457,3.15089 C 282.70405,157.45094 283.60447,159 286.46862,159 288.80756,159 289,158.65286 289,154.43358 z m 10.46119,3.20755 c -1.64367,-2.34666 -1.95434,-7.21831 -0.51698,-8.10665 0.52803,-0.32634 1.07899,1.51695 1.25,4.18199 0.23069,3.59524 0.73555,4.84715 2.05579,5.09786 1.48252,0.28152 1.75,-0.45215 1.75,-4.80002 0,-3.16692 0.38295,-4.89567 1,-4.51431 0.55,0.33992 1,2.64947 1,5.13234 0,3.75927 0.29269,4.45873 1.75,4.18199 1.32024,-0.25071 1.8251,-1.50262 2.05579,-5.09786 0.31761,-4.94965 2.19421,-5.70224 2.19421,-0.87996 0,4.55764 -2.37011,6.89076 -7,6.89076 -3.00012,0 -4.46373,-0.55125 -5.53881,-2.08614 z m 16.15123,1.06473 c -2.2542,-1.64831 -1.84084,-7.54808 0.63758,-9.0999 2.25743,-1.41345 5.12496,0.25786 5.56955,3.24617 0.27608,1.85569 -0.16601,2.14787 -3.25,2.14787 -2.48586,0 -3.56955,0.44961 -3.56955,1.48095 0,1.69864 4.28917,3.0764 6.09767,1.95868 0.7708,-0.47637 0.95185,-0.32877 0.49782,0.40586 -0.94656,1.53157 -3.78827,1.46525 -5.98307,-0.13963 z m 5.19721,-6.45586 c -0.2126,-1.10396 -1.24982,-1.75 -2.80963,-1.75 -1.55981,0 -2.59703,0.64604 -2.80963,1.75 -0.26332,1.3673 0.3511,1.75 2.80963,1.75 2.45853,0 3.07295,-0.3827 2.80963,-1.75 z M 330.2,158.8 c -0.66,-0.66 -1.2,-2.595 -1.2,-4.3 0,-3.62679 1.57656,-5.54004 4.45,-5.40032 1.71731,0.0835 1.64428,0.21254 -0.45,0.79508 -2.12182,0.59021 -2.5,1.28686 -2.5,4.60524 0,3.31838 0.37818,4.01503 2.5,4.60524 2.09428,0.58254 2.16731,0.71158 0.45,0.79508 -1.1275,0.0548 -2.59,-0.44032 -3.25,-1.10032 z m 8.04298,0.043 c -1.69838,-1.69838 -1.56915,-7.3274 0.20198,-8.7973 0.79472,-0.65956 2.48222,-1.05216 3.75,-0.87244 2.05581,0.29143 2.30504,0.86737 2.30504,5.32676 0,4.59249 -0.20433,5.02388 -2.50702,5.29298 -1.37887,0.16113 -3.06637,-0.26637 -3.75,-0.95 z M 344,154.43358 c 0,-4.3916 -0.10529,-4.55431 -2.75,-4.25 -2.18289,0.25117 -2.81693,0.90095 -3.07457,3.15089 C 337.70405,157.45094 338.60447,159 341.46862,159 343.80756,159 344,158.65286 344,154.43358 z m 5.42197,0.0758 c 0.0661,-4.22681 0.38413,-5.02155 2.07803,-5.19259 1.46256,-0.14768 1.54319,-0.0659 0.30005,0.30432 -1.20683,0.35941 -1.80962,1.86567 -2.07803,5.19259 l -0.37808,4.68631 0.078,-4.99063 z m 6.19045,4.19649 c -2.2542,-1.64831 -1.84084,-7.54808 0.63758,-9.0999 2.25743,-1.41345 5.12496,0.25786 5.56955,3.24617 0.27608,1.85569 -0.16601,2.14787 -3.25,2.14787 -2.48586,0 -3.56955,0.44961 -3.56955,1.48095 0,1.69864 4.28917,3.0764 6.09767,1.95868 0.7708,-0.47637 0.95185,-0.32877 0.49782,0.40586 -0.94656,1.53157 -3.78827,1.46525 -5.98307,-0.13963 z m 5.19721,-6.45586 c -0.2126,-1.10396 -1.24982,-1.75 -2.80963,-1.75 -1.55981,0 -2.59703,0.64604 -2.80963,1.75 -0.26332,1.3673 0.3511,1.75 2.80963,1.75 2.45853,0 3.07295,-0.3827 2.80963,-1.75 z m 10.43335,6.59298 c -1.69838,-1.69838 -1.56915,-7.3274 0.20198,-8.7973 0.79472,-0.65956 2.48222,-1.05216 3.75,-0.87244 2.05581,0.29143 2.30504,0.86737 2.30504,5.32676 0,4.59249 -0.20433,5.02388 -2.50702,5.29298 -1.37887,0.16113 -3.06637,-0.26637 -3.75,-0.95 z M 377,154.43358 c 0,-4.3916 -0.10529,-4.55431 -2.75,-4.25 -2.18289,0.25117 -2.81693,0.90095 -3.07457,3.15089 C 370.70405,157.45094 371.60447,159 374.46862,159 376.80756,159 377,158.65286 377,154.43358 z m 4.66667,4.89975 c -0.36667,-0.36666 -0.60539,-3.85416 -0.53049,-7.75 0.0749,-3.89583 0.3312,-6.07083 0.56955,-4.83333 0.25031,1.29955 1.16435,2.25 2.16382,2.25 2.60023,0 4.13045,2.0376 4.13045,5.5 0,1.705 -0.54,3.64 -1.2,4.3 -1.30743,1.30743 -4.072,1.59466 -5.13333,0.53333 z M 386.5,154.5 c 0,-3.3868 -0.34493,-4.04899 -2.25,-4.31955 -2.05592,-0.29199 -2.25,0.0806 -2.25,4.31955 0,4.23894 0.19408,4.61154 2.25,4.31955 1.90507,-0.27056 2.25,-0.93275 2.25,-4.31955 z m 4.55421,4.06532 c -1.66181,-2.00236 -0.90919,-7.64136 1.19579,-8.95936 2.5652,-1.60616 5.18313,0.42031 5.56823,4.31021 C 398.1758,157.52799 396.62436,160 394,160 c -0.96531,0 -2.29091,-0.6456 -2.94579,-1.43468 z M 396.5,154.5 c 0,-3.6 -0.25,-4 -2.5,-4 -2.00233,0 -2.56461,0.56425 -2.82457,2.83447 -0.47404,4.13971 0.48471,5.85279 3.0701,5.48567 C 396.15572,158.54889 396.5,157.88916 396.5,154.5 z m 5.7,4.3 c -0.66,-0.66 -1.1293,-3.2475 -1.0429,-5.75 l 0.15711,-4.55 0.59289,5 c 0.49041,4.1357 0.93862,5 2.5929,5 1.65428,0 2.10249,-0.8643 2.5929,-5 l 0.59289,-5 0.15711,4.55 c 0.15212,4.40577 -1.07163,6.95 -3.3429,6.95 -0.605,0 -1.64,-0.54 -2.3,-1.2 z m 9.46667,0.53333 c -0.36667,-0.36666 -0.65978,-3.40416 -0.65136,-6.75 0.008,-3.34583 0.34592,-5.5883 0.75,-4.98327 0.40408,0.60503 1.40969,1.357 2.23469,1.67105 1.1948,0.45482 1.14393,0.58706 -0.25,0.64994 -1.39122,0.0628 -1.75,0.98649 -1.75,4.50563 0,3.37499 0.41576,4.53532 1.75,4.88399 1.40212,0.36642 1.43525,0.48039 0.16667,0.57333 -0.87084,0.0638 -1.88334,-0.184 -2.25,-0.55067 z M 424.30987,154.5 c -0.006,-3.3 0.17648,-4.77056 0.40466,-3.26791 0.22817,1.50265 0.23276,4.20265 0.0102,6 -0.22256,1.79735 -0.40925,0.56791 -0.41486,-2.73209 z m 4.3568,4.83333 c -0.36667,-0.36666 -0.65978,-3.40416 -0.65136,-6.75 0.008,-3.34583 0.34592,-5.5883 0.75,-4.98327 0.40408,0.60503 1.40969,1.357 2.23469,1.67105 1.1948,0.45482 1.14393,0.58706 -0.25,0.64994 -1.39122,0.0628 -1.75,0.98649 -1.75,4.50563 0,3.37499 0.41576,4.53532 1.75,4.88399 1.40212,0.36642 1.43525,0.48039 0.16667,0.57333 -0.87084,0.0638 -1.88334,-0.184 -2.25,-0.55067 z M 0,80 0,58 9.5,58 c 9.466667,0 9.5,0.0088 9.5,2.5 0,2.428571 -0.2,2.5 -7,2.5 l -7,0 0,7 0,7 4,0 c 3.6,0 4,0.25 4,2.5 0,2.25 -0.4,2.5 -4,2.5 l -4,0 0,7.5 0,7.5 7,0 c 6.8,0 7,0.07143 7,2.5 0,2.49123 -0.03333,2.5 -9.5,2.5 L 0,102 0,80 z m 27,-0.06642 0,-22.066423 2.724694,0.316423 C 32.261076,58.478131 32.703221,59.294802 36.122107,70 L 39.794826,81.5 40.147413,70 40.5,58.5 43.269693,58.181677 46.039385,57.863355 45.769693,79.681677 45.5,101.5 l -2.61548,0.30344 c -2.47764,0.28745 -2.757248,-0.16051 -5.305473,-8.499998 C 31.90229,74.725327 32.167672,74.920907 32.078947,89.25 L 32,102 29.5,102 27,102 27,79.933578 z M 55,80 55,58 65.069551,58 c 9.870512,0 10.063235,0.04447 9.75,2.25 -0.293227,2.064652 -0.916782,2.274203 -7.569551,2.54381 L 60,63.087619 60,70.04381 60,77 l 4.5,0 c 4.105085,0 4.5,0.214351 4.5,2.442502 0,2.158631 -0.493942,2.47824 -4.25,2.75 L 60.5,82.5 l 0,7 0,7 7.25,0.29381 c 6.952436,0.28175 7.25,0.394619 7.25,2.75 C 75,101.98832 74.952436,102 65,102 l -10,0 0,-22 z m 27.447199,20.723 C 82.177682,100.02065 82.079306,90.23315 82.228584,78.973 L 82.5,58.5 90.138514,58.209943 C 100.42844,57.819203 101,58.439627 101,70 101,79.072138 99.884624,82 96.428571,82 94.454419,82 94.582712,82.788936 98,91.663498 101.62603,101.08015 101.6783,102 98.587425,102 c -2.077327,0 -2.791773,-1.00745 -5.14142,-7.25 -5.477053,-14.551444 -5.273406,-14.437556 -5.364431,-3 L 88,102 l -2.531385,0 c -1.392261,0 -2.751899,-0.57465 -3.021416,-1.277 z M 95.393011,75.418213 C 95.726855,74.548229 96,72.110034 96,70 96,64.175887 95.2261,63 91.393011,63 L 88,63 l 0,7 0,7 3.393011,0 c 2.171492,0 3.611534,-0.56946 4,-1.581787 z M 111.40499,99.895012 C 109.68194,97.991068 109.5,96.090937 109.5,80 c 0,-19.934835 0.44363,-21.335996 7.15395,-22.59486 C 122.96828,56.220566 128,59.781306 128,65.434259 c 0,3.562665 -4.49607,3.709703 -5.38296,0.176042 -0.72986,-2.908 -3.08797,-3.96382 -5.71402,-2.558398 -1.83111,0.979981 -1.93508,2.04887 -1.67756,17.246414 0.27218,16.062493 0.29434,16.20449 2.57958,16.528447 C 121.46524,97.345635 123,95.292611 123,89.877555 123,86.208617 122.62831,85 121.5,85 c -0.93333,0 -1.5,-0.944444 -1.5,-2.5 0,-2.25 0.4,-2.5 4,-2.5 l 4,0 0,9 c 0,11.28685 -1.23149,13 -9.34501,13 -4.16389,0 -5.76598,-0.46516 -7.25,-2.104988 z M 141,91.162814 c 0,-9.154212 -0.46412,-12.37661 -2.9886,-20.75 C 134.38501,58.384501 134.36806,58 137.46422,58 c 2.15328,0 2.70418,0.78865 4.36582,6.25 l 1.9016,6.25 1.79813,-6.25 c 1.67405,-5.818711 1.99849,-6.25 4.70157,-6.25 2.30492,0 2.79174,0.360746 2.36161,1.75 C 146.10698,80.698628 146,81.215835 146,91.622989 L 146,102 l -2.5,0 -2.5,0 0,-10.837186 z M 262,80 l 0,-22 2.84167,0 c 2.6242,0 2.98152,0.478313 4.66905,6.25 1.00505,3.4375 2.14671,6.622913 2.53702,7.078696 0.39031,0.455782 1.68564,-2.384542 2.87852,-6.311833 2.04483,-6.732153 2.32342,-7.122694 4.8713,-6.828696 L 282.5,58.5 l 0,21.5 0,21.5 -2.75,0.31642 L 277,102.13284 276.9198,89.316422 276.8396,76.5 l -1.66983,4.927713 c -0.91841,2.710243 -2.18662,5.095005 -2.81825,5.299473 -0.66044,0.213793 -1.99656,-2.304965 -3.14446,-5.927714 L 267.21107,74.5 267.10554,88.25 267,102 l -2.5,0 -2.5,0 0,-22 z m 28.06938,19.75 c 0.0382,-1.2375 1.50226,-11.025 3.25357,-21.75 3.17349,-19.434492 3.1931,-19.501033 5.83853,-19.807536 2.21291,-0.256391 2.74742,0.159372 3.21408,2.5 0.6632,3.3264 6.62444,40.140836 6.62444,40.910086 0,0.29166 -1.23536,0.3879 -2.74525,0.21387 -2.17103,-0.25023 -2.85175,-0.94393 -3.25438,-3.31642 -0.42337,-2.4947 -1.03533,-3.051254 -3.63327,-3.304298 -2.86858,-0.279407 -3.17869,-0.01355 -3.79094,3.25 C 295.02724,101.3717 294.47545,102 292.45469,102 c -1.89949,0 -2.439,-0.5089 -2.38531,-2.25 z m 11.62915,-11.093229 c -0.28349,-0.738775 -0.85446,-4.001275 -1.26882,-7.25 -0.81718,-6.407059 -1.4271,-5.578312 -2.8429,3.862893 C 296.89163,89.905468 296.93078,90 299.54572,90 c 1.82253,0 2.50488,-0.425746 2.15281,-1.343229 z M 318,82.563358 318,63.126717 314.75,62.813358 C 312.25905,62.573186 311.42537,61.974501 311.18045,60.25 310.86816,58.051152 311.07846,58 320.43045,58 329.9713,58 330,58.0075 330,60.5 c 0,2.190476 -0.43333,2.5 -3.5,2.5 l -3.5,0 0,19.5 0,19.5 -2.5,0 -2.5,0 0,-19.436642 z m 24,0.0031 L 342,63 l -3,0 c -2.53333,0 -3,-0.388889 -3,-2.5 0,-2.481481 0.0667,-2.5 9,-2.5 8.93333,0 9,0.01852 9,2.5 0,2.107083 -0.46811,2.5 -2.97841,2.5 l -2.9784,0 -0.2716,19.25 -0.27159,19.25 -2.75,0.31642 -2.75,0.31642 0,-19.566418 z M 362,80 l 0,-22 9.5,0 c 9.46667,0 9.5,0.0088 9.5,2.5 0,2.428571 -0.2,2.5 -7,2.5 l -7,0 0,6.942502 0,6.942502 4.25,0.307498 c 3.48083,0.251847 4.25,0.669458 4.25,2.307498 0,1.63804 -0.76917,2.055651 -4.25,2.307498 l -4.25,0.307498 0,7.442502 0,7.442502 7,0 c 6.8,0 7,0.07143 7,2.5 0,2.49123 -0.0333,2.5 -9.5,2.5 l -9.5,0 0,-22 z m 27,0 0,-22 7.9433,0 C 407.0348,58 408,59.047551 408,70 c 0,8.188917 -1.59797,12 -5.03155,12 -1.79622,0 -1.72178,0.524391 1.17112,8.25 4.63136,12.36821 4.58417,11.96243 1.34667,11.57969 -2.52282,-0.29826 -3.12056,-1.21162 -6.26934,-9.57969 C 397.30255,87.1625 395.34561,83 394.86813,83 394.39066,83 394,87.275 394,92.5 c 0,9.46667 -0.009,9.5 -2.5,9.5 l -2.5,0 0,-22 z m 12.5,-10 0,-6.5 -3.75,-0.310365 -3.75,-0.310366 0,6.393699 c 0,3.516534 0.32133,6.715026 0.71406,7.107759 0.39273,0.392733 2.08023,0.580233 3.75,0.416666 L 401.5,76.5 l 0,-6.5 z m 16.5,30 c -1.11111,-1.111111 -2,-3.333333 -2,-5 0,-2.49707 0.40093,-3 2.39159,-3 1.73273,0 2.56881,0.706096 3.03488,2.563057 0.52181,2.079059 1.156,2.50394 3.35841,2.25 2.57505,-0.296907 2.73093,-0.621142 3.02165,-6.285137 C 428.14105,84.010502 426.84495,82 422.30887,82 417.70447,82 416,78.787883 416,70.110784 416,60.003662 417.64915,57.5 424.30666,57.5 429.99021,57.5 433,59.977188 433,64.654988 433,67.556334 432.66841,68 430.5,68 c -1.81841,0 -2.5,-0.535679 -2.5,-1.964816 0,-1.080649 -0.86875,-2.429757 -1.93055,-2.998018 -3.00072,-1.605936 -5.0725,1.175046 -5.05414,6.784263 0.0192,5.878206 0.60336,6.728051 5.20595,7.574249 C 431.59559,78.383764 433,80.995116 433,90 c 0,10.01613 -1.33195,12 -8.0567,12 -3.60997,0 -5.48275,-0.53945 -6.9433,-2 z M 179,81.5 179,68 l -2.5,0 c -1.55556,0 -2.5,-0.566667 -2.5,-1.5 0,-1.190476 1.44444,-1.5 7,-1.5 5.55556,0 7,0.309524 7,1.5 0,0.933333 -0.94444,1.5 -2.5,1.5 l -2.5,0 0,13.5 c 0,12.833333 -0.0988,13.5 -2,13.5 -1.90123,0 -2,-0.666667 -2,-13.5 z M 192,80 c 0,-14.333333 0.0889,-15 2,-15 1.79487,0 2,0.666667 2,6.5 0,6.266667 0.0897,6.5 2.5,6.5 2.41026,0 2.5,-0.233333 2.5,-6.5 0,-5.833333 0.20513,-6.5 2,-6.5 1.91154,0 2,0.666667 2,15.073324 0,13.815877 -0.14599,15.045514 -1.75,14.739957 -1.40383,-0.267423 -1.80889,-1.567712 -2.04772,-6.573324 C 200.92193,82.363984 200.76152,82 198.45228,82 196.10076,82 196,82.267061 196,88.5 c 0,5.833333 -0.20513,6.5 -2,6.5 -1.91111,0 -2,-0.666667 -2,-15 z m 18.02669,14.25 c 0.0147,-0.4125 1.05788,-7.05 2.31823,-14.75 2.02624,-12.37916 2.52569,-14.034578 4.31393,-14.298665 1.85463,-0.273891 2.20304,0.804477 4.20013,13 C 223.52647,94.490681 223.53074,95 221,95 c -1.33333,0 -2,-0.666667 -2,-2 0,-1.363144 -0.66667,-2 -2.09362,-2 -1.25262,0 -2.30371,0.803397 -2.61663,2 -0.48122,1.840174 -4.32416,2.966987 -4.26306,1.25 z m 7.90302,-9.5 C 217.89106,83.5125 217.47269,81.6 217,80.5 c -0.76972,-1.791226 -0.86677,-1.721473 -0.92971,0.668213 -0.0387,1.467516 -0.34343,3.380016 -0.67728,4.25 -0.39831,1.037983 -0.0545,1.581787 1,1.581787 1.02067,0 1.58135,-0.820931 1.5367,-2.25 z M 229,81.5 C 229,68.666667 228.9012,68 227,68 c -1.11111,0 -2,-0.666667 -2,-1.5 0,-1.179487 1.38889,-1.5 6.5,-1.5 4.97065,0 6.5,0.336563 6.5,1.430449 0,0.786747 -1.0125,1.574247 -2.25,1.75 -2.18758,0.310686 -2.25774,0.687141 -2.52903,13.569551 -0.26162,12.423914 -0.4019,13.25 -2.25,13.25 C 229.10701,95 229,94.267065 229,81.5 z"
       id="path3051"
       inkscape:connector-curvature="0" />
  </g>
</svg>
