<?xml version="1.0" encoding="UTF-8" standalone="no"?>
<!-- Created with Inkscape (http://www.inkscape.org/) -->

<svg
   xmlns:dc="http://purl.org/dc/elements/1.1/"
   xmlns:cc="http://creativecommons.org/ns#"
   xmlns:rdf="http://www.w3.org/1999/02/22-rdf-syntax-ns#"
   xmlns:svg="http://www.w3.org/2000/svg"
   xmlns="http://www.w3.org/2000/svg"
   xmlns:sodipodi="http://sodipodi.sourceforge.net/DTD/sodipodi-0.dtd"
   xmlns:inkscape="http://www.inkscape.org/namespaces/inkscape"
   id="svg3021"
   version="1.1"
   inkscape:version="0.48.5 r10040"
   width="3930"
   height="1185"
   sodipodi:docname="LOGO_BEEGROUP.png">
  <metadata
     id="metadata3027">
    <rdf:RDF>
      <cc:Work
         rdf:about="">
        <dc:format>image/svg+xml</dc:format>
        <dc:type
           rdf:resource="http://purl.org/dc/dcmitype/StillImage" />
        <dc:title></dc:title>
      </cc:Work>
    </rdf:RDF>
  </metadata>
  <defs
     id="defs3025" />
  <sodipodi:namedview
     pagecolor="#ffffff"
     bordercolor="#666666"
     borderopacity="1"
     objecttolerance="10"
     gridtolerance="10"
     guidetolerance="10"
     inkscape:pageopacity="0"
     inkscape:pageshadow="2"
     inkscape:window-width="1366"
     inkscape:window-height="706"
     id="namedview3023"
     showgrid="false"
     inkscape:zoom="0.072773537"
     inkscape:cx="1965"
     inkscape:cy="592.5"
     inkscape:window-x="1912"
     inkscape:window-y="157"
     inkscape:window-maximized="1"
     inkscape:current-layer="svg3021" />
  <g
     id="g3031"
     transform="translate(2.7972028e-5,2.5874124e-7)">
    <path
       style="fill:#959da5"
       d="m 2399.5,1183.8798 c -25.4365,-1.6297 -57.9915,-5.3172 -70.5518,-7.9914 C 2319.483,1173.8732 2315,1168.7666 2315,1160 c 0,-5.7043 2.3074,-10.5905 5.8716,-12.4336 3.9746,-2.0554 9.8414,-1.9759 28.3402,0.3837 53.1666,6.7819 106.1993,8.5303 134.5912,4.4374 30.9465,-4.4613 47.9611,-16.4205 57.4596,-40.3875 6.3028,-15.9036 9.7104,-40.0244 9.7288,-68.8666 0.01,-13.353 0.01,-13.366 -2.2414,-12.8393 -41.0542,9.6196 -96.8161,13.6103 -129.25,9.2501 -34.109,-4.5855 -58.0763,-15.3528 -78.0061,-35.0442 -11.3399,-11.20421 -19.2939,-22.46754 -25.8669,-36.62909 -16.3757,-35.28149 -21.6129,-74.92032 -20.2635,-153.37091 0.881,-51.21861 3.9017,-75.52018 12.6466,-101.74223 13.7304,-41.17099 38.0981,-66.51806 76.1336,-79.19339 23.0554,-7.68319 43.0338,-10.06544 77.7476,-9.27071 30.7515,0.70401 54.3903,3.33247 92.6087,10.29737 22.5991,4.11844 27.3956,6.05777 29.2835,11.83988 1.0324,3.16226 1.2155,44.61733 0.9362,212 -0.3175,190.21868 -0.4947,209.09858 -2.0655,220.06908 -9.766,68.2073 -38.0456,97.642 -100.8286,104.9471 -14.6083,1.6997 -58.9153,1.9326 -82.3256,0.4327 z m 77.5,-173.9242 c 25.2463,-1.784 49.9866,-5.0015 66.25,-8.6158 l 6.75,-1.50011 0,-167.81719 0,-167.81719 -6.25,-1.08432 c -73.1068,-12.68338 -131.3641,-11.39519 -161.1617,3.56361 -12.5379,6.29418 -24.5249,17.22738 -31.4188,28.6567 -9.6991,16.07993 -15.2577,35.04316 -19.2464,65.6587 -1.629,12.5035 -2.3833,106.65667 -1.0037,125.27406 2.6281,35.46444 9.4897,61.59973 21.1446,80.53822 21.6612,35.19832 58.3037,47.85182 124.936,43.14332 z m 1169.6664,172.0563 c -2.0639,-1.8121 -4.0554,-4.7518 -4.6365,-6.8442 -1.5701,-5.6526 -1.2988,-524.5639 0.2765,-529.11832 1.7352,-5.0163 5.6183,-6.75844 22.3542,-10.02901 41.0993,-8.03171 74.0464,-11.42078 111.3394,-11.45282 27.0718,-0.0232 30.3643,0.16306 40,2.26354 29.8241,6.50131 50.8155,17.73997 69.3298,37.11868 21.5262,22.53119 35.0317,53.64084 41.9149,96.55023 2.1472,13.38547 2.2458,16.63371 2.2458,74 0,57.55899 -0.093,60.58165 -2.2748,74.29686 -13.422,84.35777 -55.8794,126.67634 -132.592,132.15854 -25.7704,1.8417 -80.8732,-2.7313 -111.8737,-9.2843 l -6.75,-1.4269 -0.01,70.1279 c 0,46.1528 -0.3666,71.4282 -1.0617,73.9312 -0.5809,2.0918 -2.3411,5.2418 -3.9117,7 -2.7494,3.0779 -3.1878,3.2095 -11.7962,3.5409 -8.8264,0.3398 -8.9869,0.3036 -12.5584,-2.8323 z m 165.7655,-174.0137 c 44.9172,-9.55875 70.4978,-39.85887 79.4573,-94.11694 C 3895.1354,894.22298 3896,877.42136 3896,834 c 0,-22.33012 -0.4649,-46.65266 -1.0331,-54.05011 -6.1935,-80.63046 -37.5201,-119.51447 -100.6829,-124.97225 -22.2576,-1.92323 -76.035,1.99253 -112.0369,8.15787 l -6.2529,1.07081 0.2529,168.62989 0.2529,168.62989 4,0.7108 c 46.107,8.1932 107.9611,10.9225 131.9319,5.8213 z M 361.5,1174.584 c -3.3,-0.7616 -8.36739,-2.3249 -11.26088,-3.474 -2.89348,-1.1492 -75.38871,-47.3238 -161.1005,-102.6102 C 62.451236,986.78298 32.1304,966.8118 27.052032,961.7395 15.604612,950.30575 5.8548783,933.37817 1.9113684,918.09004 0.06718068,910.94052 0,904.87679 0,745.56994 0,582.08151 0.02017579,580.38699 2.0541449,573.04717 7.766921,552.43193 21.847723,531.88947 37.5,521.33527 60.12852,506.07706 344.40557,323.29203 347.99485,321.69267 c 4.49138,-2.00133 13.41914,-4.65839 15.72757,-4.6808 0.95132,-0.009 1.28397,18.45012 1.5,83.23813 l 0.27758,83.25 2.8682,8.5 c 5.76687,17.09028 15.38902,32.89425 27.08897,44.49249 6.10144,6.04841 30.52015,22.13136 178.41145,117.50751 94.23838,60.775 173.545,111.60557 176.23694,112.95682 l 4.89444,2.45682 0,67.60952 c 0,69.50194 -0.19247,73.47149 -4.16873,85.97684 -4.92484,15.48861 -18.10499,35.35802 -29.01099,43.73478 -2.92615,2.24754 -74.8381,48.91532 -159.80432,103.70622 -174.5033,112.5294 -160.53694,104.4825 -182.51596,105.1586 -7.92171,0.2437 -14.03914,-0.1015 -18,-1.0156 z m 776,-126.1826 c -29.771,-2.0873 -38.2004,-2.8161 -52,-4.496 -19.0541,-2.3196 -43.7385,-6.4257 -51.7788,-8.613 -6.7941,-1.8483 -10.7212,-5.7248 -10.7212,-10.5829 0,-6.795 94.0126,-539.21956 95.944,-543.3629 1.0649,-2.28437 3.6144,-5.43437 5.6657,-7 l 3.7295,-2.8466 23.6358,-0.29923 c 14.4732,-0.18324 24.6802,0.0978 26.3299,0.72507 3.2989,1.25422 6.6863,6.55763 6.6914,10.47604 0,2.22698 -22.0305,129.386 -24.5422,141.63771 l -0.5206,2.53959 12.2833,-1.7704 c 31.6132,-4.55647 74.5441,-6.75535 95.2832,-4.88033 67.6658,6.11766 106.2612,39.86597 118.1774,103.33578 2.2024,11.73068 2.4947,51.37777 0.4846,65.73577 -1.9186,13.70448 -13.562,77.46638 -16.6158,90.99163 -20.5167,90.86874 -65.8303,144.41747 -137.5462,162.54327 -18.8498,4.7642 -27.7058,5.6484 -59.5,5.941 -16.5,0.1518 -32.25,0.1183 -35,-0.074 z m 58.6727,-59.41516 c 34.705,-3.29106 60.739,-18.54692 79.3285,-46.48624 10.9255,-16.42053 20.0962,-38.23048 25.8998,-61.59504 4.1422,-16.67627 16.457,-85.89225 18.2082,-102.3403 1.8938,-17.78757 1.423,-39.27988 -1.1077,-50.56466 -6.1329,-27.34734 -23.9516,-42.89062 -54.5015,-47.54184 -11.4816,-1.74807 -50.0411,-1.95257 -75.2886,-0.39928 -17.8665,1.09919 -37.3843,3.28071 -38.3951,4.29144 -0.823,0.82301 -53.4338,299.86552 -52.857,300.44227 0.7305,0.73053 35.7195,3.20027 58.0407,4.09687 29.6276,1.19009 29.1553,1.18897 40.6727,0.0968 z m 376.1525,58.91826 c -60.0076,-6.992 -102.59,-38.5558 -118.6891,-87.9771 C 1447.7847,941.96444 1446.5,932.43612 1446.5,907 c 0,-25.43941 0,-25.46642 9.1026,-74.5 9.1924,-49.53505 14.1374,-67.8561 25.399,-94.10177 11.2868,-26.3042 24.6063,-46.06169 44.4652,-65.95747 20.9872,-21.02612 41.4235,-33.74706 68.7101,-42.76969 22.455,-7.42502 41.0273,-10.15435 68.3231,-10.04056 29.716,0.12388 49.5655,4.30825 71.0708,14.98203 45.506,22.58615 70.8835,72.87693 68.0662,134.88746 -0.7504,16.51518 -1.3522,20.97939 -6.7404,50 -4.4782,24.1189 -6.5855,30.42824 -11.2819,33.77824 L 1780.5,855.5 l -130.6279,0.26453 -130.6279,0.26452 -0.5898,2.73548 c -0.3243,1.50451 -1.705,7.91047 -3.0681,14.23547 -5.0158,23.27472 -5.432,47.60111 -1.1033,64.5 5.9001,23.03389 23.0693,40.49798 47.517,48.33331 14.9376,4.78739 22.8905,5.65676 51,5.57504 34.2646,-0.0996 65.2479,-2.34989 105,-7.62599 27.5147,-3.65189 32.9581,-3.01321 34.3035,4.02487 0.7039,3.68218 -4.9813,34.86597 -7.1453,39.19277 -3.0061,6.0106 -9.4837,8.3716 -34.1582,12.45 -25.5124,4.217 -50.3392,7.114 -73,8.5182 -19.1277,1.1853 -55.2562,1.1503 -65.6748,-0.064 z M 1729.4115,801.25 c 3.0227,-14.57324 3.9618,-24.38293 3.9968,-41.75 0.033,-16.36821 -0.2676,-20.2143 -2.1702,-27.76657 -3.4375,-13.6453 -8.4618,-22.91374 -17.326,-31.96158 -6.3737,-6.5057 -9.0941,-8.45156 -17,-12.15947 -12.9003,-6.05029 -21.2935,-7.81009 -39.9121,-8.36827 -22.876,-0.68581 -37.3961,2.35076 -55.4814,11.60276 -23.5965,12.07134 -42.9217,32.81675 -56.4599,60.6089 -7.0771,14.52839 -11.4111,27.6322 -16.4692,49.79423 l -0.6276,2.75 100.4396,0 100.4396,0 0.5704,-2.75 z M 1986,1047.9627 c -38.0585,-4.6674 -69.9809,-19.4192 -91.8557,-42.4476 -17.5436,-18.46891 -28.2029,-41.67317 -32.6269,-71.02555 -1.7649,-11.70992 -1.9946,-38.21387 -0.4532,-52.27896 1.5078,-13.75721 13.3403,-77.99776 17.4654,-94.822 23.5768,-96.15871 81.1858,-154.22856 164.5378,-165.85417 56.2203,-7.84137 103.0438,4.07282 133.4868,33.96558 22.7755,22.36392 35.3644,52.09313 38.6051,91.16822 1.5186,18.30974 0.123,37.24214 -4.6746,63.41536 -6.9243,37.77521 -7.9709,40.87074 -14.8788,44.00787 -3.9378,1.78829 -9.3901,1.86553 -133.1772,1.88659 l -129.0712,0.022 -2.6401,11.25 c -4.2682,18.18806 -5.1194,25.30824 -5.1111,42.75 0.01,13.58107 0.3932,18.05085 2.186,25.26657 3.4424,13.85525 8.3851,22.88786 17.7077,32.35969 6.9084,7.01899 9.4328,8.81705 18.5,13.17714 19.1819,9.22385 36.6708,11.84407 72,10.78718 33.4079,-0.99941 76.7492,-4.70005 107.4725,-9.17638 17.3775,-2.53187 22.5275,-0.839 22.5275,7.4051 0,6.32264 -4.8448,33.00406 -6.712,36.96476 -2.436,5.1673 -8.1262,7.7685 -23.288,10.6461 -18.2605,3.4658 -44.0363,7.1257 -64,9.0873 -19.1883,1.8855 -74.791,2.8199 -86,1.4452 z M 2143.0207,803.25 c 0.011,-0.4125 0.9133,-6.15 2.0042,-12.75 6.9452,-42.01912 1.1007,-72.55681 -17.4337,-91.0912 -13.2406,-13.24058 -29.701,-19.24203 -55.2346,-20.13842 -23.9306,-0.84012 -38.6209,2.18871 -57.3566,11.82573 -21.9259,11.27794 -39.6697,29.54841 -53.3214,54.90389 -8.0723,14.99287 -15.7329,37.0389 -19.0246,54.75 l -0.604,3.25 100.475,0 c 55.2613,0 100.4843,-0.3375 100.4957,-0.75 z m 539.6219,237.7813 c -1.5716,-0.5037 -3.7713,-1.7293 -4.8881,-2.7236 -4.9739,-4.4281 -4.7545,4.4275 -4.7545,-191.87445 0,-206.83339 -0.7693,-188.00891 7.9105,-193.56964 8.5663,-5.48809 30.5455,-15.80339 41.0895,-19.28418 22.5768,-7.45307 42.129,-9.97203 72.309,-9.31577 22.2232,0.48324 26.8407,1.24071 31.3834,5.14816 2.2981,1.97675 2.7565,3.27416 3.1082,8.79709 0.5011,7.86962 -1.4164,12.33331 -6.117,14.23995 -2.2016,0.893 -11.9743,1.47747 -31.6836,1.89487 -39.9886,0.84688 -54.0336,3.25508 -73.7366,12.64314 l -10.2366,4.87752 -0.2634,179.31781 c -0.2604,177.2773 -0.2862,179.3564 -2.2634,182.7133 -3.1011,5.2648 -6.4378,7.2161 -13.0969,7.659 -3.2467,0.2159 -7.189,-0.019 -8.7605,-0.5232 z m 337.7746,-0.044 c -73.6234,-5.1467 -120.7892,-47.90431 -135.8355,-123.14004 -4.6959,-23.48066 -5.0823,-30.05703 -5.0728,-86.34736 0.01,-45.38186 0.2643,-54.79673 1.7851,-65.5 6.5229,-45.90535 20.5352,-77.91254 44.6685,-102.03215 19.7254,-19.71429 43.8661,-31.72811 75.5375,-37.59191 8.0899,-1.4978 14.8707,-1.84673 35.5,-1.82676 23.8341,0.0231 26.3232,0.20033 38.1016,2.71348 29.1837,6.22694 50.1492,16.63473 68.4994,34.00471 25.0627,23.72395 40.3212,56.8392 47.1055,102.23263 1.5647,10.46936 1.7935,19.33431 1.7935,69.5 0,50.61902 -0.2169,58.8762 -1.8124,69 -5.2486,33.30356 -14.3167,59.15896 -27.8707,79.46595 -5.964,8.93541 -20.0821,24.18095 -28.1738,30.42365 -28.2081,21.7624 -69.3255,32.2366 -114.2259,29.0978 z m 34.3722,-31.0404 c 60.7405,-6.5865 93.3707,-43.53309 102.4012,-115.947 0.9302,-7.45961 1.3043,-25.55717 1.2918,-62.5 -0.015,-44.2855 -0.28,-53.85445 -1.7861,-64.5 -9.3892,-66.36422 -38.5232,-100.92333 -93.1963,-110.5505 -13.4523,-2.36875 -41.2705,-2.39708 -54.5,-0.0555 -26.5244,4.69475 -44.2513,13.66668 -60.1396,30.43773 -21.7237,22.93081 -32.2378,54.05452 -34.9987,103.6033 -1.2844,23.04981 -0.5617,87.91298 1.1427,102.56497 8.5343,73.36473 42.347,111.151 104.9956,117.3345 8.024,0.7919 25.7314,0.5947 34.7894,-0.3875 z m 337.5234,31.0872 c -19.768,-1.7808 -38.754,-7.1461 -55.3128,-15.6311 -32.5137,-16.6605 -54.4279,-45.08978 -64.3843,-83.52567 -6.237,-24.0777 -5.9864,-17.58097 -6.3793,-165.37743 -0.2504,-94.22757 -0.035,-136.10456 0.7148,-138.65726 4.1906,-14.27637 28.6007,-14.29474 32.8761,-0.0247 0.8713,2.90789 1.1727,37.86747 1.1727,135.9968 0,111.4201 0.2336,133.8507 1.493,143.38398 6.523,49.37442 29.8227,78.50667 71.2327,89.06418 8.1304,2.0728 10.939,2.2341 38.2743,2.1974 28.9072,-0.039 29.7009,-0.094 39.5,-2.7549 39.4985,-10.72496 61.3929,-38.19035 69.1667,-86.76617 1.4859,-9.28533 1.714,-25.42695 2.063,-146.02514 0.3787,-130.84671 0.4585,-135.69454 2.2836,-138.69566 3.1152,-5.12251 6.3871,-6.63719 14.3825,-6.65819 8.9278,-0.0234 12.6469,1.83064 15.5018,7.72815 l 2.1024,4.343 0,130.0106 c 0,84.56017 -0.3727,133.82941 -1.0662,140.93427 -2.612,26.76061 -10.1588,51.59833 -21.2107,69.80772 -19.6386,32.35692 -53.7254,53.89532 -94.2679,59.56482 -10.7925,1.5093 -36.9021,2.0979 -48.1424,1.0853 z M 686,642.34859 c -0.825,-0.3305 -16.28204,-10.1025 -34.34897,-21.71555 -28.01465,-18.00725 -33.20232,-21.7176 -35.25,-25.2117 L 614,591.32428 l 0,-35.69426 c 0,-38.79223 0.11611,-39.71582 5.62684,-44.75986 1.58024,-1.44641 16.946,-11.68025 34.14614,-22.74186 33.12643,-21.30399 35.83646,-22.57782 42.27903,-19.873 4.02799,1.69109 62.33205,39.0323 65.79531,42.13903 1.29102,1.15812 3.20352,3.77524 4.25,5.81583 1.76325,3.43828 1.90268,6.2731 1.90268,38.6849 0,22.27998 -0.38606,35.99654 -1.06362,37.78984 -0.58499,1.54831 -2.27249,4.08257 -3.75,5.6317 -1.47751,1.54914 -17.0553,12.08552 -34.61732,23.41418 -28.05983,18.10045 -32.48487,20.63523 -36.5,20.90815 -2.51298,0.17082 -5.24406,0.0402 -6.06906,-0.29034 z M 493.83458,424.24601 c -13.45946,-8.72318 -23.30902,-15.77916 -24.25,-17.37211 -2.35926,-3.99392 -2.35595,-51.75948 0.004,-55.75434 0.94899,-1.6065 10.75018,-8.61291 24.34669,-17.40429 C 513.09996,321.32347 517.2945,319 520.50055,319 c 3.20152,0 7.45361,2.34651 26.72839,14.75 14.93722,9.61223 23.41754,15.69059 24.34613,17.45034 1.85974,3.52433 2.08719,51.25206 0.26332,55.255 -0.77045,1.69095 -8.9674,7.59975 -24.3421,17.54706 -19.95822,12.91282 -23.72372,14.99313 -27.08839,14.96542 -3.3123,-0.0273 -7.36233,-2.27103 -26.57332,-14.72181 z M 764,429.86566 c -10.85982,-6.59924 -42.85155,-27.47466 -44.84501,-29.26251 -4.93882,-4.42942 -5.15509,-5.80611 -5.15344,-32.80349 0.001,-22.08937 0.22342,-25.74171 1.75,-28.78334 1.4119,-2.81313 6.45582,-6.51846 26.20434,-19.25 21.33174,-13.75224 24.97251,-15.76512 28.5,-15.75693 3.51421,0.008 7.23943,2.07187 28.43035,15.75 19.19459,12.38955 24.78922,16.48573 26.27913,19.24061 1.74236,3.22168 1.87069,5.58177 1.61376,29.67899 -0.26374,24.73529 -0.39418,26.33457 -2.36527,29 -1.14737,1.55156 -13.01667,9.90851 -26.37622,18.57101 C 771.75159,433.29421 770.47948,433.80308 764,429.86566 z M 613.42216,293.38534 C 595.50403,281.94108 597,284.43749 597,265.98067 c 0,-13.69191 0.22098,-15.85827 1.75,-17.15618 C 603.56589,244.73653 624.90512,232 626.93834,232 c 3.34367,0 28.97335,16.79151 29.61854,19.40484 0.28449,1.15234 0.38807,8.62016 0.23019,16.59516 l -0.28707,14.5 -13.99754,9.25 c -7.69864,5.0875 -14.70867,9.25 -15.57784,9.25 -0.86917,0 -6.94528,-3.4266 -13.50246,-7.61466 z M 755,254.46866 c -7.975,-5.1651 -15.2875,-10.3584 -16.25,-11.54066 -1.50759,-1.85181 -1.75,-4.41332 -1.75,-18.49173 0,-9.26386 0.45384,-17.33709 1.04782,-18.63922 1.57289,-3.44812 30.51721,-21.79805 34.37542,-21.79311 3.56637,0.005 32.66403,18.42209 34.48732,21.82894 1.56533,2.92485 1.41929,32.96987 -0.1753,36.06402 -1.7032,3.30489 -31.29332,22.12365 -34.64407,22.03298 -1.48779,-0.0403 -8.76567,-4.0691 -17.09119,-9.46122 z M 641.5,169.41409 c -8.25,-5.25766 -16.0125,-10.67679 -17.25,-12.04251 -2.16268,-2.38675 -2.24877,-3.18917 -2.2182,-20.67734 0.0223,-12.76852 0.397,-18.67377 1.25642,-19.80225 C 625.78242,113.61692 655.81064,95 658.59898,95 c 3.88186,0 34.01711,19.35691 35.94784,23.09055 1.87298,3.62193 1.99768,32.95057 0.15808,37.17894 -1.39721,3.21152 -32.66396,23.73931 -36.12478,23.71726 -1.14406,-0.007 -8.83012,-4.31499 -17.08012,-9.57266 z M 558.91377,47.399291 c -5.72757,-3.63039 -10.74438,-7.11789 -11.14846,-7.75 C 546.46028,37.607801 546.87556,15.531512 548.25,13.883018 550.30728,11.415528 568.46187,0 570.32874,0 c 1.82273,0 21.64598,12.437946 22.90595,14.372161 0.40408,0.620311 0.74158,6.345595 0.75,12.722851 0.0132,10.01655 -0.23611,11.822542 -1.83154,13.266389 C 589.22858,43.008098 571.76539,54 570.48506,54 c -0.63663,0 -5.84371,-2.970319 -11.57129,-6.600709 z"
       id="path3037"
       inkscape:connector-curvature="0" />
    <path
       style="fill:#83e363"
       d="m 2418.5,1184.403 c -45.6071,-2.2755 -88.4906,-7.3169 -96.3512,-11.3271 -4.7609,-2.4288 -6.1488,-5.5212 -6.1488,-13.6999 0,-5.8454 0.2987,-6.8285 2.8495,-9.3794 1.5673,-1.5672 4.3949,-3.1394 6.2836,-3.4937 1.8887,-0.3544 12.4189,0.4874 23.4005,1.8705 36.9183,4.65 57.7703,6.0116 92.9664,6.071 42.7111,0.072 55.8397,-1.8376 72.6062,-10.5605 25.9368,-13.4938 35.109,-37.4521 37.4335,-97.778 l 0.6703,-17.3941 -2.355,0.6803 c -7.6499,2.2098 -27.474,5.8341 -41.3266,7.5556 -63.4207,7.8812 -104.9801,4.2541 -138.0284,-12.0464 -43.6972,-21.5528 -67.9758,-67.11425 -73.4577,-137.85119 -1.345,-17.35631 -1.3428,-93.3845 0,-111.55011 2.5611,-34.56253 9.0912,-62.04185 19.8426,-83.5 19.518,-38.9552 51.3155,-59.1634 104.1119,-66.16618 13.9108,-1.84509 54.0121,-1.53857 73.5,0.56181 32.8755,3.54327 77.8273,11.17092 83.6851,14.2001 6.355,3.28628 5.8952,-14.82287 5.5483,218.51624 -0.3461,232.86833 0.04,217.64153 -6.1749,243.43133 -11.7841,48.8994 -38.7283,72.3936 -91.7205,79.9765 -10.9744,1.5704 -51.1103,2.6928 -67.338,1.8832 z m 81.0181,-175.7793 c 21.8444,-2.6044 42.7678,-6.0614 49.7319,-8.2168 1.6576,-0.51307 1.75,-9.40826 1.75,-168.4069 0,-159.00719 -0.092,-167.89262 -1.75,-168.38441 -3.1159,-0.92441 -34.3341,-5.49278 -49.75,-7.28024 -21.9155,-2.54109 -68.8423,-2.53392 -84,0.0128 -53.297,8.95479 -76.746,38.57929 -84.0235,106.15182 -2.1002,19.50124 -3.0185,83.26266 -1.6057,111.5 2.6308,52.58389 11.3816,82.68134 30.6398,105.38173 13.6377,16.0754 35.9235,26.9201 62.6931,30.5076 10.607,1.4214 60.7518,0.5899 76.3144,-1.2656 z m 1149.5667,174.6247 c -1.8784,-0.9616 -4.2409,-3.3164 -5.25,-5.2328 -1.7663,-3.3543 -1.8348,-13.3413 -1.8348,-267.52749 0,-237.65099 0.156,-264.26582 1.5607,-266.27132 2.5533,-3.64539 6.3869,-4.99385 23.072,-8.11556 48.286,-9.03409 104.9936,-13.8581 131.3673,-11.17517 44.4051,4.51722 76.3581,21.8122 98.705,53.42539 16.0702,22.73369 27.0278,55.34847 31.4632,93.64855 0.9413,8.12824 1.3318,26.45304 1.3318,62.5 0,36.04696 -0.3905,54.37176 -1.3318,62.5 -8.8299,76.24665 -40.6549,121.4123 -96.8426,137.4381 -18.1024,5.1632 -25.8823,6.0369 -53.3256,5.9886 -24.808,-0.044 -36.1756,-0.7803 -62,-4.0174 -11.3943,-1.4283 -29.5981,-4.3177 -37.75,-5.9918 l -3.25,-0.6675 0,72.1648 c 0,69.5762 -0.07,72.302 -1.9501,75.9874 -1.1879,2.3284 -3.2991,4.4627 -5.4011,5.4602 -4.6188,2.1917 -14.175,2.1331 -18.564,-0.114 z m 156.9194,-173.6929 c 40.0895,-6.0435 65.5364,-27.58938 79.3059,-67.14824 6.9892,-20.07947 9.3123,-36.38102 10.8524,-76.15325 1.4729,-38.03678 0.042,-87.93331 -3.104,-108.25401 -9.8888,-63.86954 -39.7267,-96.74323 -93.5852,-103.10698 -20.0755,-2.37205 -66.8196,0.38076 -108.5156,6.3906 l -15.4577,2.22798 -0.2529,169.11289 -0.2529,169.11291 3.7529,0.6462 c 18.8558,3.2467 46.8847,6.4776 68.7529,7.925 15.2313,1.0081 49.7703,0.5635 58.5042,-0.7531 z M 361.5,1174.584 c -3.3,-0.7616 -8.36739,-2.3249 -11.26088,-3.474 -2.89348,-1.1492 -75.38871,-47.3238 -161.1005,-102.6102 C 62.451236,986.78298 32.1304,966.8118 27.052032,961.7395 15.604612,950.30575 5.8548783,933.37817 1.9113684,918.09004 0.06718068,910.94052 0,904.87679 0,745.56994 0,582.08151 0.02017579,580.38699 2.0541449,573.04717 7.766921,552.43193 21.847723,531.88947 37.5,521.33527 60.12852,506.07706 344.40557,323.29203 347.99485,321.69267 c 4.49138,-2.00133 13.41914,-4.65839 15.72757,-4.6808 0.95132,-0.009 1.28397,18.45012 1.5,83.23813 l 0.27758,83.25 2.8682,8.5 c 5.76687,17.09028 15.38902,32.89425 27.08897,44.49249 6.10144,6.04841 30.52015,22.13136 178.41145,117.50751 94.23838,60.775 173.545,111.60557 176.23694,112.95682 l 4.89444,2.45682 0,67.60952 c 0,69.50194 -0.19247,73.47149 -4.16873,85.97684 -4.92484,15.48861 -18.10499,35.35802 -29.01099,43.73478 -2.92615,2.24754 -74.8381,48.91532 -159.80432,103.70622 -174.5033,112.5294 -160.53694,104.4825 -182.51596,105.1586 -7.92171,0.2437 -14.03914,-0.1015 -18,-1.0156 z M 1140,1047.965 c -42.8817,-2.0427 -101.1025,-9.9157 -111.1201,-15.0263 -5.2016,-2.6536 -6.1635,-5.3943 -4.8329,-13.7701 3.1444,-19.79352 93.0991,-531.27331 93.9999,-534.48077 1.5392,-5.48071 7.0659,-11.1795 12.2492,-12.63075 2.9331,-0.82122 11.2209,-1.10092 26.0852,-0.88036 l 21.7863,0.32328 2.9162,3.26578 c 2.3346,2.61445 2.9227,4.20996 2.9486,8 0.018,2.60382 -5.4685,35.88544 -12.1918,73.95914 -6.7232,38.07371 -11.9909,69.4581 -11.7059,69.74309 0.285,0.28499 6.7837,-0.35615 14.4417,-1.42476 25.7235,-3.58951 39.7023,-4.49274 69.9236,-4.51809 33.7571,-0.0283 41.2503,0.85343 60.8875,7.16473 45.8614,14.73962 72.0939,47.21131 80.2305,99.31252 2.0187,12.92637 2.2549,41.99588 0.4671,57.49759 -1.8149,15.73649 -14.5136,85.41923 -18.6016,102.07397 -11.9288,48.59878 -31.218,86.11165 -57.9654,112.72897 -12.2348,12.17526 -25.0075,21.27336 -41.0181,29.21746 -19.7692,9.8091 -39.4798,15.5399 -63.5,18.4625 -12.4708,1.5174 -43.8202,1.991 -65,0.9821 z m 72.7317,-60.83421 c 20.8652,-5.30213 36.1453,-14.04302 50.2835,-28.76436 9.6697,-10.0686 15.9077,-19.09502 22.9023,-33.14009 11.2933,-22.67644 15.3929,-37.52058 25.0093,-90.55366 9.5789,-52.8271 9.1758,-49.78202 9.7524,-73.67268 0.4614,-19.11584 0.2899,-22.60891 -1.5465,-31.5 -5.5663,-26.95093 -21.4659,-42.5495 -49.7199,-48.77857 -9.0576,-1.9969 -12.544,-2.17774 -40.4128,-2.09634 -29.8519,0.0872 -55.519,1.42427 -71.4914,3.7242 L 1149.5172,683.5 1122.9123,834 c -14.6327,82.775 -26.3366,150.80541 -26.0086,151.1787 0.4983,0.56716 30.1685,2.82435 55.0963,4.19151 3.575,0.19607 16.85,0.24307 29.5,0.10443 19.4836,-0.21353 24.2585,-0.57188 31.2317,-2.34385 z m 365.4597,60.74341 c -37.6927,-3.099 -70.2754,-16.4693 -92.7756,-38.0703 -10.7671,-10.33689 -17.0878,-18.68702 -23.3173,-30.8039 -13.9997,-27.23087 -18.6386,-60.28283 -14.035,-100 1.3787,-11.89503 13.4016,-76.35966 16.9562,-90.91628 24.4557,-100.14988 84.169,-157.89091 172.8728,-167.16288 16.0026,-1.67271 46.5915,-0.64019 59.5507,2.01011 27.8912,5.70407 49.2235,16.81373 66.6755,34.72403 15.3663,15.76982 25.9951,35.33665 31.8709,58.67194 3.786,15.0356 5.0042,26.07396 5.0076,45.37186 0,18.59046 -1.4348,30.97525 -6.9342,59.72079 -4.0355,21.0939 -6.1442,27.63293 -10.0227,31.08043 -2.2225,1.97555 -3.8551,2.00319 -133.5605,2.26092 l -131.3106,0.26093 -2.6422,11.05021 c -7.5372,31.52194 -7.3241,61.54386 0.5715,80.50991 9.9299,23.85279 29.9322,38.20904 60.5221,43.43864 24.3749,4.16711 81.4854,1.89315 140.0442,-5.57611 23.9878,-3.05968 29.6423,-3.13741 32.3352,-0.4445 2.6716,2.6716 2.5579,5.51549 -1.0008,25.0381 -3.1753,17.4199 -4.2853,20.043 -9.8634,23.3096 -5.5946,3.2763 -44.462,9.9726 -76.1358,13.1171 -17.4001,1.7274 -53.0903,3.552 -66,3.3741 -4.675,-0.064 -13.1389,-0.4986 -18.8086,-0.9647 z M 1729.4046,803.25 c 1.4189,-4.60388 3.7554,-21.30181 4.5196,-32.29957 2.944,-42.36833 -8.9215,-69.85211 -36.0568,-83.51721 -9.2399,-4.65314 -19.2286,-7.24742 -33.1958,-8.62167 -20.965,-2.06277 -41.6827,1.31494 -59.4052,9.68509 -28.7906,13.59759 -51.0048,38.50793 -65.2618,73.18282 -4.6298,11.26019 -12.0046,36.67126 -12.0046,41.36356 0,1.92965 1.4026,1.95698 100.4326,1.95698 94.778,0 100.463,-0.0985 100.972,-1.75 z M 1996.5,1048.3077 c -8.8225,-0.5854 -26.7687,-3.3634 -34.68,-5.3683 -73.258,-18.5649 -109.2797,-75.61671 -100.3521,-158.9394 2.4268,-22.65028 14.239,-85.10432 20.1428,-106.5 18.1,-65.59572 53.0609,-112.60923 101.8893,-137.01505 21.3,-10.64636 43.2903,-16.93644 68.3925,-19.56292 15.7882,-1.65194 46.5996,-0.64089 59.21,1.94292 48.5958,9.9571 80.9487,38.28037 95.8369,83.90006 6.2906,19.27525 7.5606,28.38544 7.5606,54.23499 0,24.31285 -0.3229,27.25697 -6.635,60.49371 -4.4769,23.57297 -6.217,28.53115 -11.047,31.47588 -3.2856,2.00318 -4.5895,2.02297 -133.5006,2.02667 -123.1296,0.004 -130.209,0.0986 -130.6692,1.75374 -5.2181,18.76881 -7.6482,35.88995 -7.6482,53.8858 0,20.94431 3.6581,35.06402 12.549,48.43797 11.2394,16.90635 31.9558,28.10827 58.9179,31.85834 22.4206,3.11842 91.3071,-0.34374 139.0058,-6.98627 19.4685,-2.7112 24.9522,-2.61183 28.0728,0.50871 1.35,1.35 2.4542,3.4875 2.4538,4.75 0,5.47047 -6.0183,35.14315 -7.715,38.04835 -3.6915,6.3208 -9.8821,8.1502 -46.2843,13.6777 -39.7834,6.041 -88.6249,9.1605 -115.5,7.3771 z M 2143.9818,799.75 c 3.0038,-13.74242 4.2156,-28.47903 3.721,-45.25 -0.5821,-19.73568 -1.8577,-25.75969 -8.3062,-39.22627 -7.8326,-16.35669 -22.1948,-27.8748 -41.424,-33.22085 -17.7528,-4.93559 -42.7822,-4.94902 -61.4726,-0.033 -9.2582,2.43515 -25.4381,9.94876 -33.76,15.67744 -22.9229,15.77998 -41.2445,41.45388 -52.7157,73.87043 -3.4194,9.66276 -8.0209,27.54716 -8.023,31.18223 l 0,2.25 100.4171,0 100.4172,0 1.1475,-5.25 z m 535.7808,239.6846 c -1.5056,-0.8169 -3.5306,-2.9364 -4.5,-4.71 -1.662,-3.0406 -1.7793,-13.5808 -2.0556,-184.7246 -0.1612,-99.825 0,-183.52436 0.3485,-185.99859 0.9462,-6.63472 5.5412,-10.39011 23.5838,-19.27466 31.0937,-15.31113 53.0747,-20.11161 92.3607,-20.17087 24.6573,-0.0372 32.1419,1.08604 36.5394,5.4835 2.5548,2.55485 2.8327,15.27048 0.4093,18.73038 -3.1239,4.46001 -4.5564,4.66824 -36.9487,5.37099 -41.3116,0.89624 -54.3417,3.2475 -74.75,13.48851 l -8.75,4.39081 -0.022,178.73997 c -0.021,173.42586 -0.078,178.86436 -1.9214,182.92366 -1.1381,2.5068 -3.1135,4.8115 -4.9284,5.75 -3.924,2.0292 -15.6265,2.0297 -19.3656,9e-4 z M 3013,1039.9568 c -67.8321,-8.277 -109.8555,-46.04472 -125.9822,-113.22418 -5.8649,-24.43149 -7.9648,-49.16982 -7.9565,-93.73262 0.01,-46.73039 2.1042,-70.75341 8.3738,-96 9.2162,-37.11263 27.0932,-65.96816 52.6503,-84.98365 27.4288,-20.40817 68.8501,-30.54218 111.2469,-27.21738 58.8962,4.61871 98.5123,29.95058 121.1567,77.47156 11.0613,23.21303 17.0912,48.06252 19.4683,80.22947 1.3472,18.23115 1.3325,83.05637 -0.023,101 -5.2884,70.00605 -32.0828,118.1072 -78.8014,141.4638 -9.8073,4.9031 -28.5072,10.7849 -41.7022,13.117 -13.573,2.3988 -45.6945,3.4301 -58.4307,1.876 z m 46.5,-29.9916 c 17.7973,-2.5301 35.6979,-8.8871 47.6502,-16.92176 7.9965,-5.37554 19.7107,-16.72549 25.3309,-24.54344 8.3849,-11.66382 15.6063,-28.04164 19.92,-45.17806 5.5144,-21.9063 5.902,-26.9583 6.354,-82.82194 0.4541,-56.12333 -0.1392,-68.45172 -4.2897,-89.14983 -11.5395,-57.54552 -44.0181,-89.78311 -96.9654,-96.24598 -18.7241,-2.2855 -44.9336,-0.84147 -60.7479,3.34695 -38.9903,10.32663 -64.9487,37.94788 -76.2814,81.1679 -5.9515,22.69745 -6.7266,31.70247 -7.2194,83.88096 -0.477,50.49532 0.2355,66.69357 3.8076,86.56587 10.2679,57.12241 40.4767,90.20863 90.3907,99.00023 11.498,2.0252 40.594,2.5278 52.0504,0.8991 z m 330,30.4362 c -21.6925,-3.0423 -37.2458,-7.6147 -52.4268,-15.4126 -36.0258,-18.5052 -58.281,-50.68897 -67.2967,-97.31916 -2.1377,-11.05657 -2.163,-12.57386 -2.4982,-149.87967 -0.3735,-153.04092 -0.747,-143.70473 5.9115,-147.76434 2.3901,-1.45716 5.0565,-2.01919 9.5923,-2.02189 7.5643,-0.005 12.139,1.73379 14.7635,5.60983 1.9088,2.81911 1.9675,6.0935 2.515,140.38643 0.5913,145.03888 0.4552,140.97033 5.408,161.61205 9.3882,39.12694 33.546,63.34943 71.5314,71.72295 8.2082,1.8094 12.8995,2.0988 34.5,2.1283 27.9018,0.038 34.7176,-0.8866 50.6761,-6.8743 12.8528,-4.82242 19.269,-9.03727 29.8223,-19.59059 13.238,-13.23799 20.4024,-26.31459 25.578,-46.68523 5.3232,-20.95204 5.4236,-24.0194 5.4236,-165.74133 0,-129.84037 0.017,-130.97588 2.0442,-135.16316 2.5928,-5.3561 6.7227,-7.40869 14.9066,-7.40869 7.2712,0 11.3651,1.83011 14.0897,6.29855 1.9105,3.13332 1.9521,6.0681 1.9558,137.90023 0,145.84817 0.035,144.90436 -5.4713,167.54521 -12.7984,52.62656 -47.7169,86.65951 -100.525,97.97551 -9.941,2.1302 -14.6181,2.5076 -34.5,2.7835 -12.65,0.1755 -24.35,0.1298 -26,-0.1016 z M 686,642.34859 c -0.825,-0.3305 -16.28204,-10.1025 -34.34897,-21.71555 -28.01465,-18.00725 -33.20232,-21.7176 -35.25,-25.2117 L 614,591.32428 l 0,-35.69426 c 0,-38.79223 0.11611,-39.71582 5.62684,-44.75986 1.58024,-1.44641 16.946,-11.68025 34.14614,-22.74186 33.12643,-21.30399 35.83646,-22.57782 42.27903,-19.873 4.02799,1.69109 62.33205,39.0323 65.79531,42.13903 1.29102,1.15812 3.20352,3.77524 4.25,5.81583 1.76325,3.43828 1.90268,6.2731 1.90268,38.6849 0,22.27998 -0.38606,35.99654 -1.06362,37.78984 -0.58499,1.54831 -2.27249,4.08257 -3.75,5.6317 -1.47751,1.54914 -17.0553,12.08552 -34.61732,23.41418 -28.05983,18.10045 -32.48487,20.63523 -36.5,20.90815 -2.51298,0.17082 -5.24406,0.0402 -6.06906,-0.29034 z M 493.83458,424.24601 c -13.45946,-8.72318 -23.30902,-15.77916 -24.25,-17.37211 -2.35926,-3.99392 -2.35595,-51.75948 0.004,-55.75434 0.94899,-1.6065 10.75018,-8.61291 24.34669,-17.40429 C 513.09996,321.32347 517.2945,319 520.50055,319 c 3.20152,0 7.45361,2.34651 26.72839,14.75 14.93722,9.61223 23.41754,15.69059 24.34613,17.45034 1.85974,3.52433 2.08719,51.25206 0.26332,55.255 -0.77045,1.69095 -8.9674,7.59975 -24.3421,17.54706 -19.95822,12.91282 -23.72372,14.99313 -27.08839,14.96542 -3.3123,-0.0273 -7.36233,-2.27103 -26.57332,-14.72181 z M 764,429.86566 c -10.85982,-6.59924 -42.85155,-27.47466 -44.84501,-29.26251 -4.93882,-4.42942 -5.15509,-5.80611 -5.15344,-32.80349 0.001,-22.08937 0.22342,-25.74171 1.75,-28.78334 1.4119,-2.81313 6.45582,-6.51846 26.20434,-19.25 21.33174,-13.75224 24.97251,-15.76512 28.5,-15.75693 3.51421,0.008 7.23943,2.07187 28.43035,15.75 19.19459,12.38955 24.78922,16.48573 26.27913,19.24061 1.74236,3.22168 1.87069,5.58177 1.61376,29.67899 -0.26374,24.73529 -0.39418,26.33457 -2.36527,29 -1.14737,1.55156 -13.01667,9.90851 -26.37622,18.57101 C 771.75159,433.29421 770.47948,433.80308 764,429.86566 z M 613.42216,293.38534 C 595.50403,281.94108 597,284.43749 597,265.98067 c 0,-13.69191 0.22098,-15.85827 1.75,-17.15618 C 603.56589,244.73653 624.90512,232 626.93834,232 c 3.34367,0 28.97335,16.79151 29.61854,19.40484 0.28449,1.15234 0.38807,8.62016 0.23019,16.59516 l -0.28707,14.5 -13.99754,9.25 c -7.69864,5.0875 -14.70867,9.25 -15.57784,9.25 -0.86917,0 -6.94528,-3.4266 -13.50246,-7.61466 z M 755,254.46866 c -7.975,-5.1651 -15.2875,-10.3584 -16.25,-11.54066 -1.50759,-1.85181 -1.75,-4.41332 -1.75,-18.49173 0,-9.26386 0.45384,-17.33709 1.04782,-18.63922 1.57289,-3.44812 30.51721,-21.79805 34.37542,-21.79311 3.56637,0.005 32.66403,18.42209 34.48732,21.82894 1.56533,2.92485 1.41929,32.96987 -0.1753,36.06402 -1.7032,3.30489 -31.29332,22.12365 -34.64407,22.03298 -1.48779,-0.0403 -8.76567,-4.0691 -17.09119,-9.46122 z M 641.5,169.41409 c -8.25,-5.25766 -16.0125,-10.67679 -17.25,-12.04251 -2.16268,-2.38675 -2.24877,-3.18917 -2.2182,-20.67734 0.0223,-12.76852 0.397,-18.67377 1.25642,-19.80225 C 625.78242,113.61692 655.81064,95 658.59898,95 c 3.88186,0 34.01711,19.35691 35.94784,23.09055 1.87298,3.62193 1.99768,32.95057 0.15808,37.17894 -1.39721,3.21152 -32.66396,23.73931 -36.12478,23.71726 -1.14406,-0.007 -8.83012,-4.31499 -17.08012,-9.57266 z M 558.91377,47.399291 c -5.72757,-3.63039 -10.74438,-7.11789 -11.14846,-7.75 C 546.46028,37.607801 546.87556,15.531512 548.25,13.883018 550.30728,11.415528 568.46187,0 570.32874,0 c 1.82273,0 21.64598,12.437946 22.90595,14.372161 0.40408,0.620311 0.74158,6.345595 0.75,12.722851 0.0132,10.01655 -0.23611,11.822542 -1.83154,13.266389 C 589.22858,43.008098 571.76539,54 570.48506,54 c -0.63663,0 -5.84371,-2.970319 -11.57129,-6.600709 z"
       id="path3035"
       inkscape:connector-curvature="0" />
    <path
       style="fill:#263647"
       d="m 2418.5,1184.403 c -45.6071,-2.2755 -88.4906,-7.3169 -96.3512,-11.3271 -4.7609,-2.4288 -6.1488,-5.5212 -6.1488,-13.6999 0,-5.8454 0.2987,-6.8285 2.8495,-9.3794 1.5673,-1.5672 4.3949,-3.1394 6.2836,-3.4937 1.8887,-0.3544 12.4189,0.4874 23.4005,1.8705 36.9183,4.65 57.7703,6.0116 92.9664,6.071 42.7111,0.072 55.8397,-1.8376 72.6062,-10.5605 25.9368,-13.4938 35.109,-37.4521 37.4335,-97.778 l 0.6703,-17.3941 -2.355,0.6803 c -7.6499,2.2098 -27.474,5.8341 -41.3266,7.5556 -63.4207,7.8812 -104.9801,4.2541 -138.0284,-12.0464 -43.6972,-21.5528 -67.9758,-67.11425 -73.4577,-137.85119 -1.345,-17.35631 -1.3428,-93.3845 0,-111.55011 2.5611,-34.56253 9.0912,-62.04185 19.8426,-83.5 19.518,-38.9552 51.3155,-59.1634 104.1119,-66.16618 13.9108,-1.84509 54.0121,-1.53857 73.5,0.56181 32.8755,3.54327 77.8273,11.17092 83.6851,14.2001 6.355,3.28628 5.8952,-14.82287 5.5483,218.51624 -0.3461,232.86833 0.04,217.64153 -6.1749,243.43133 -11.7841,48.8994 -38.7283,72.3936 -91.7205,79.9765 -10.9744,1.5704 -51.1103,2.6928 -67.338,1.8832 z m 81.0181,-175.7793 c 21.8444,-2.6044 42.7678,-6.0614 49.7319,-8.2168 1.6576,-0.51307 1.75,-9.40826 1.75,-168.4069 0,-159.00719 -0.092,-167.89262 -1.75,-168.38441 -3.1159,-0.92441 -34.3341,-5.49278 -49.75,-7.28024 -21.9155,-2.54109 -68.8423,-2.53392 -84,0.0128 -53.297,8.95479 -76.746,38.57929 -84.0235,106.15182 -2.1002,19.50124 -3.0185,83.26266 -1.6057,111.5 2.6308,52.58389 11.3816,82.68134 30.6398,105.38173 13.6377,16.0754 35.9235,26.9201 62.6931,30.5076 10.607,1.4214 60.7518,0.5899 76.3144,-1.2656 z m 1149.5667,174.6247 c -1.8784,-0.9616 -4.2409,-3.3164 -5.25,-5.2328 -1.7663,-3.3543 -1.8348,-13.3413 -1.8348,-267.52749 0,-237.65099 0.156,-264.26582 1.5607,-266.27132 2.5533,-3.64539 6.3869,-4.99385 23.072,-8.11556 48.286,-9.03409 104.9936,-13.8581 131.3673,-11.17517 44.4051,4.51722 76.3581,21.8122 98.705,53.42539 16.0702,22.73369 27.0278,55.34847 31.4632,93.64855 0.9413,8.12824 1.3318,26.45304 1.3318,62.5 0,36.04696 -0.3905,54.37176 -1.3318,62.5 -8.8299,76.24665 -40.6549,121.4123 -96.8426,137.4381 -18.1024,5.1632 -25.8823,6.0369 -53.3256,5.9886 -24.808,-0.044 -36.1756,-0.7803 -62,-4.0174 -11.3943,-1.4283 -29.5981,-4.3177 -37.75,-5.9918 l -3.25,-0.6675 0,72.1648 c 0,69.5762 -0.07,72.302 -1.9501,75.9874 -1.1879,2.3284 -3.2991,4.4627 -5.4011,5.4602 -4.6188,2.1917 -14.175,2.1331 -18.564,-0.114 z m 156.9194,-173.6929 c 40.0895,-6.0435 65.5364,-27.58938 79.3059,-67.14824 6.9892,-20.07947 9.3123,-36.38102 10.8524,-76.15325 1.4729,-38.03678 0.042,-87.93331 -3.104,-108.25401 -9.8888,-63.86954 -39.7267,-96.74323 -93.5852,-103.10698 -20.0755,-2.37205 -66.8196,0.38076 -108.5156,6.3906 l -15.4577,2.22798 -0.2529,169.11289 -0.2529,169.11291 3.7529,0.6462 c 18.8558,3.2467 46.8847,6.4776 68.7529,7.925 15.2313,1.0081 49.7703,0.5635 58.5042,-0.7531 z M 1140,1047.965 c -42.8817,-2.0427 -101.1025,-9.9157 -111.1201,-15.0263 -5.2016,-2.6536 -6.1635,-5.3943 -4.8329,-13.7701 3.1444,-19.79352 93.0991,-531.27331 93.9999,-534.48077 1.5392,-5.48071 7.0659,-11.1795 12.2492,-12.63075 2.9331,-0.82122 11.2209,-1.10092 26.0852,-0.88036 l 21.7863,0.32328 2.9162,3.26578 c 2.3346,2.61445 2.9227,4.20996 2.9486,8 0.018,2.60382 -5.4685,35.88544 -12.1918,73.95914 -6.7232,38.07371 -11.9909,69.4581 -11.7059,69.74309 0.285,0.28499 6.7837,-0.35615 14.4417,-1.42476 25.7235,-3.58951 39.7023,-4.49274 69.9236,-4.51809 33.7571,-0.0283 41.2503,0.85343 60.8875,7.16473 45.8614,14.73962 72.0939,47.21131 80.2305,99.31252 2.0187,12.92637 2.2549,41.99588 0.4671,57.49759 -1.8149,15.73649 -14.5136,85.41923 -18.6016,102.07397 -11.9288,48.59878 -31.218,86.11165 -57.9654,112.72897 -12.2348,12.17526 -25.0075,21.27336 -41.0181,29.21746 -19.7692,9.8091 -39.4798,15.5399 -63.5,18.4625 -12.4708,1.5174 -43.8202,1.991 -65,0.9821 z m 72.7317,-60.83421 c 20.8652,-5.30213 36.1453,-14.04302 50.2835,-28.76436 9.6697,-10.0686 15.9077,-19.09502 22.9023,-33.14009 11.2933,-22.67644 15.3929,-37.52058 25.0093,-90.55366 9.5789,-52.8271 9.1758,-49.78202 9.7524,-73.67268 0.4614,-19.11584 0.2899,-22.60891 -1.5465,-31.5 -5.5663,-26.95093 -21.4659,-42.5495 -49.7199,-48.77857 -9.0576,-1.9969 -12.544,-2.17774 -40.4128,-2.09634 -29.8519,0.0872 -55.519,1.42427 -71.4914,3.7242 L 1149.5172,683.5 1122.9123,834 c -14.6327,82.775 -26.3366,150.80541 -26.0086,151.1787 0.4983,0.56716 30.1685,2.82435 55.0963,4.19151 3.575,0.19607 16.85,0.24307 29.5,0.10443 19.4836,-0.21353 24.2585,-0.57188 31.2317,-2.34385 z m 365.4597,60.74341 c -37.6927,-3.099 -70.2754,-16.4693 -92.7756,-38.0703 -10.7671,-10.33689 -17.0878,-18.68702 -23.3173,-30.8039 -13.9997,-27.23087 -18.6386,-60.28283 -14.035,-100 1.3787,-11.89503 13.4016,-76.35966 16.9562,-90.91628 24.4557,-100.14988 84.169,-157.89091 172.8728,-167.16288 16.0026,-1.67271 46.5915,-0.64019 59.5507,2.01011 27.8912,5.70407 49.2235,16.81373 66.6755,34.72403 15.3663,15.76982 25.9951,35.33665 31.8709,58.67194 3.786,15.0356 5.0042,26.07396 5.0076,45.37186 0,18.59046 -1.4348,30.97525 -6.9342,59.72079 -4.0355,21.0939 -6.1442,27.63293 -10.0227,31.08043 -2.2225,1.97555 -3.8551,2.00319 -133.5605,2.26092 l -131.3106,0.26093 -2.6422,11.05021 c -7.5372,31.52194 -7.3241,61.54386 0.5715,80.50991 9.9299,23.85279 29.9322,38.20904 60.5221,43.43864 24.3749,4.16711 81.4854,1.89315 140.0442,-5.57611 23.9878,-3.05968 29.6423,-3.13741 32.3352,-0.4445 2.6716,2.6716 2.5579,5.51549 -1.0008,25.0381 -3.1753,17.4199 -4.2853,20.043 -9.8634,23.3096 -5.5946,3.2763 -44.462,9.9726 -76.1358,13.1171 -17.4001,1.7274 -53.0903,3.552 -66,3.3741 -4.675,-0.064 -13.1389,-0.4986 -18.8086,-0.9647 z M 1729.4046,803.25 c 1.4189,-4.60388 3.7554,-21.30181 4.5196,-32.29957 2.944,-42.36833 -8.9215,-69.85211 -36.0568,-83.51721 -9.2399,-4.65314 -19.2286,-7.24742 -33.1958,-8.62167 -20.965,-2.06277 -41.6827,1.31494 -59.4052,9.68509 -28.7906,13.59759 -51.0048,38.50793 -65.2618,73.18282 -4.6298,11.26019 -12.0046,36.67126 -12.0046,41.36356 0,1.92965 1.4026,1.95698 100.4326,1.95698 94.778,0 100.463,-0.0985 100.972,-1.75 z M 1996.5,1048.3077 c -8.8225,-0.5854 -26.7687,-3.3634 -34.68,-5.3683 -73.258,-18.5649 -109.2797,-75.61671 -100.3521,-158.9394 2.4268,-22.65028 14.239,-85.10432 20.1428,-106.5 18.1,-65.59572 53.0609,-112.60923 101.8893,-137.01505 21.3,-10.64636 43.2903,-16.93644 68.3925,-19.56292 15.7882,-1.65194 46.5996,-0.64089 59.21,1.94292 48.5958,9.9571 80.9487,38.28037 95.8369,83.90006 6.2906,19.27525 7.5606,28.38544 7.5606,54.23499 0,24.31285 -0.3229,27.25697 -6.635,60.49371 -4.4769,23.57297 -6.217,28.53115 -11.047,31.47588 -3.2856,2.00318 -4.5895,2.02297 -133.5006,2.02667 -123.1296,0.004 -130.209,0.0986 -130.6692,1.75374 -5.2181,18.76881 -7.6482,35.88995 -7.6482,53.8858 0,20.94431 3.6581,35.06402 12.549,48.43797 11.2394,16.90635 31.9558,28.10827 58.9179,31.85834 22.4206,3.11842 91.3071,-0.34374 139.0058,-6.98627 19.4685,-2.7112 24.9522,-2.61183 28.0728,0.50871 1.35,1.35 2.4542,3.4875 2.4538,4.75 0,5.47047 -6.0183,35.14315 -7.715,38.04835 -3.6915,6.3208 -9.8821,8.1502 -46.2843,13.6777 -39.7834,6.041 -88.6249,9.1605 -115.5,7.3771 z M 2143.9818,799.75 c 3.0038,-13.74242 4.2156,-28.47903 3.721,-45.25 -0.5821,-19.73568 -1.8577,-25.75969 -8.3062,-39.22627 -7.8326,-16.35669 -22.1948,-27.8748 -41.424,-33.22085 -17.7528,-4.93559 -42.7822,-4.94902 -61.4726,-0.033 -9.2582,2.43515 -25.4381,9.94876 -33.76,15.67744 -22.9229,15.77998 -41.2445,41.45388 -52.7157,73.87043 -3.4194,9.66276 -8.0209,27.54716 -8.023,31.18223 l 0,2.25 100.4171,0 100.4172,0 1.1475,-5.25 z m 535.7808,239.6846 c -1.5056,-0.8169 -3.5306,-2.9364 -4.5,-4.71 -1.662,-3.0406 -1.7793,-13.5808 -2.0556,-184.7246 -0.1612,-99.825 0,-183.52436 0.3485,-185.99859 0.9462,-6.63472 5.5412,-10.39011 23.5838,-19.27466 31.0937,-15.31113 53.0747,-20.11161 92.3607,-20.17087 24.6573,-0.0372 32.1419,1.08604 36.5394,5.4835 2.5548,2.55485 2.8327,15.27048 0.4093,18.73038 -3.1239,4.46001 -4.5564,4.66824 -36.9487,5.37099 -41.3116,0.89624 -54.3417,3.2475 -74.75,13.48851 l -8.75,4.39081 -0.022,178.73997 c -0.021,173.42586 -0.078,178.86436 -1.9214,182.92366 -1.1381,2.5068 -3.1135,4.8115 -4.9284,5.75 -3.924,2.0292 -15.6265,2.0297 -19.3656,9e-4 z M 3013,1039.9568 c -67.8321,-8.277 -109.8555,-46.04472 -125.9822,-113.22418 -5.8649,-24.43149 -7.9648,-49.16982 -7.9565,-93.73262 0.01,-46.73039 2.1042,-70.75341 8.3738,-96 9.2162,-37.11263 27.0932,-65.96816 52.6503,-84.98365 27.4288,-20.40817 68.8501,-30.54218 111.2469,-27.21738 58.8962,4.61871 98.5123,29.95058 121.1567,77.47156 11.0613,23.21303 17.0912,48.06252 19.4683,80.22947 1.3472,18.23115 1.3325,83.05637 -0.023,101 -5.2884,70.00605 -32.0828,118.1072 -78.8014,141.4638 -9.8073,4.9031 -28.5072,10.7849 -41.7022,13.117 -13.573,2.3988 -45.6945,3.4301 -58.4307,1.876 z m 46.5,-29.9916 c 17.7973,-2.5301 35.6979,-8.8871 47.6502,-16.92176 7.9965,-5.37554 19.7107,-16.72549 25.3309,-24.54344 8.3849,-11.66382 15.6063,-28.04164 19.92,-45.17806 5.5144,-21.9063 5.902,-26.9583 6.354,-82.82194 0.4541,-56.12333 -0.1392,-68.45172 -4.2897,-89.14983 -11.5395,-57.54552 -44.0181,-89.78311 -96.9654,-96.24598 -18.7241,-2.2855 -44.9336,-0.84147 -60.7479,3.34695 -38.9903,10.32663 -64.9487,37.94788 -76.2814,81.1679 -5.9515,22.69745 -6.7266,31.70247 -7.2194,83.88096 -0.477,50.49532 0.2355,66.69357 3.8076,86.56587 10.2679,57.12241 40.4767,90.20863 90.3907,99.00023 11.498,2.0252 40.594,2.5278 52.0504,0.8991 z m 330,30.4362 c -21.6925,-3.0423 -37.2458,-7.6147 -52.4268,-15.4126 -36.0258,-18.5052 -58.281,-50.68897 -67.2967,-97.31916 -2.1377,-11.05657 -2.163,-12.57386 -2.4982,-149.87967 -0.3735,-153.04092 -0.747,-143.70473 5.9115,-147.76434 2.3901,-1.45716 5.0565,-2.01919 9.5923,-2.02189 7.5643,-0.005 12.139,1.73379 14.7635,5.60983 1.9088,2.81911 1.9675,6.0935 2.515,140.38643 0.5913,145.03888 0.4552,140.97033 5.408,161.61205 9.3882,39.12694 33.546,63.34943 71.5314,71.72295 8.2082,1.8094 12.8995,2.0988 34.5,2.1283 27.9018,0.038 34.7176,-0.8866 50.6761,-6.8743 12.8528,-4.82242 19.269,-9.03727 29.8223,-19.59059 13.238,-13.23799 20.4024,-26.31459 25.578,-46.68523 5.3232,-20.95204 5.4236,-24.0194 5.4236,-165.74133 0,-129.84037 0.017,-130.97588 2.0442,-135.16316 2.5928,-5.3561 6.7227,-7.40869 14.9066,-7.40869 7.2712,0 11.3651,1.83011 14.0897,6.29855 1.9105,3.13332 1.9521,6.0681 1.9558,137.90023 0,145.84817 0.035,144.90436 -5.4713,167.54521 -12.7984,52.62656 -47.7169,86.65951 -100.525,97.97551 -9.941,2.1302 -14.6181,2.5076 -34.5,2.7835 -12.65,0.1755 -24.35,0.1298 -26,-0.1016 z"
       id="path3033"
       inkscape:connector-curvature="0" />
  </g>
</svg>
