<?xml version="1.0" encoding="UTF-8" standalone="no"?>
<!-- Created with Inkscape (http://www.inkscape.org/) -->

<svg
   xmlns:dc="http://purl.org/dc/elements/1.1/"
   xmlns:cc="http://creativecommons.org/ns#"
   xmlns:rdf="http://www.w3.org/1999/02/22-rdf-syntax-ns#"
   xmlns:svg="http://www.w3.org/2000/svg"
   xmlns="http://www.w3.org/2000/svg"
   xmlns:xlink="http://www.w3.org/1999/xlink"
   xmlns:sodipodi="http://sodipodi.sourceforge.net/DTD/sodipodi-0.dtd"
   xmlns:inkscape="http://www.inkscape.org/namespaces/inkscape"
   id="svg2985"
   version="1.1"
   inkscape:version="0.48.5 r10040"
   width="413.56064"
   height="142.25615"
   xml:space="preserve"
   sodipodi:docname="etm_banner.svg"><metadata
     id="metadata2991"><rdf:RDF><cc:Work
         rdf:about=""><dc:format>image/svg+xml</dc:format><dc:type
           rdf:resource="http://purl.org/dc/dcmitype/StillImage" /><dc:title></dc:title></cc:Work></rdf:RDF></metadata><defs
     id="defs2989"><linearGradient
       inkscape:collect="always"
       id="linearGradient3904"><stop
         style="stop-color:#84e464;stop-opacity:1;"
         offset="0"
         id="stop3906" /><stop
         style="stop-color:#84e464;stop-opacity:0;"
         offset="1"
         id="stop3908" /></linearGradient><clipPath
       clipPathUnits="userSpaceOnUse"
       id="clipPath2999"><path
         d="m 0,595.28 841.89,0 L 841.89,0 0,0 0,595.28 z"
         id="path3001"
         inkscape:connector-curvature="0" /></clipPath><linearGradient
       inkscape:collect="always"
       xlink:href="#linearGradient3904"
       id="linearGradient3910"
       x1="-55.054501"
       y1="31.306829"
       x2="152.73914"
       y2="31.306829"
       gradientUnits="userSpaceOnUse" /></defs><sodipodi:namedview
     pagecolor="#ffffff"
     bordercolor="#666666"
     borderopacity="1"
     objecttolerance="10"
     gridtolerance="10"
     guidetolerance="10"
     inkscape:pageopacity="0"
     inkscape:pageshadow="2"
     inkscape:window-width="1920"
     inkscape:window-height="1058"
     id="namedview2987"
     showgrid="false"
     inkscape:zoom="1.1705416"
     inkscape:cx="138.74698"
     inkscape:cy="124.6792"
     inkscape:window-x="-8"
     inkscape:window-y="-8"
     inkscape:window-maximized="1"
     inkscape:current-layer="g2997"
     showguides="true"
     inkscape:guide-bbox="true"
     fit-margin-top="0"
     fit-margin-left="0"
     fit-margin-right="0"
     fit-margin-bottom="0"><sodipodi:guide
       orientation="1,0"
       position="-240.80503,227.43419"
       id="guide3159" /><sodipodi:guide
       orientation="1,0"
       position="-0.745215,203.51364"
       id="guide3161" /><sodipodi:guide
       orientation="1,0"
       position="412.7386,185.57323"
       id="guide3163" /></sodipodi:namedview><g
     id="g2993"
     inkscape:groupmode="layer"
     inkscape:label="etm_encerticus-01"
     transform="matrix(1.25,0,0,-1.25,-319.40112,439.3655)"
     style="display:inline"><g
       id="g2995"
       style="display:inline"><g
         id="g2997"
         clip-path="url(#clipPath2999)"
         style="display:inline"><g
   id="g3003"
   transform="translate(392.6934,300.3809)"
   style="fill:#000000;fill-opacity:1"><path
     d="m 0,0 0,18.911 c 0,0.562 -0.14,0.703 -0.704,0.703 l -2.001,0 c -0.534,0 -0.816,0 -0.816,1.045 0,1.071 0.282,1.071 0.816,1.071 l 7.638,0 c 0.536,0 0.817,0 0.817,-1.071 0,-1.045 -0.281,-1.045 -0.817,-1.045 l -1.973,0 c -0.563,0 -0.704,-0.141 -0.704,-0.703 L 2.256,0 c 0,-0.535 0,-0.818 -1.155,-0.818 C 0,-0.818 0,-0.535 0,0"
     style="fill:#000000;fill-opacity:1;fill-rule:nonzero;stroke:none"
     id="path3005"
     inkscape:connector-curvature="0" /></g><g
   id="g3007"
   transform="translate(412.1143,321.2925)"
   style="fill:#000000;fill-opacity:1"><path
     d="m 0,0 0,-20.912 c 0,-0.535 0,-0.818 -1.155,-0.818 -1.099,0 -1.099,0.283 -1.099,0.818 l 0,9.102 c 0,0.339 -0.255,0.451 -0.706,0.451 l -3.382,0 c -0.508,0 -0.703,-0.112 -0.703,-0.563 l 0,-8.99 c 0,-0.535 0,-0.818 -1.158,-0.818 -1.098,0 -1.098,0.283 -1.098,0.818 l 0,20.912 c 0,0.535 0,0.818 1.098,0.818 1.158,0 1.158,-0.283 1.158,-0.818 l 0,-8.708 c 0,-0.424 0.195,-0.536 0.703,-0.536 l 3.382,0 c 0.506,0 0.706,0.112 0.706,0.536 l 0,8.708 c 0,0.535 0,0.818 1.099,0.818 C 0,0.818 0,0.535 0,0"
     style="fill:#000000;fill-opacity:1;fill-rule:nonzero;stroke:none"
     id="path3009"
     inkscape:connector-curvature="0" /></g><g
   id="g3011"
   transform="translate(422.7109,305.5937)"
   style="fill:#000000;fill-opacity:1"><path
     d="M 0,0 C 0,0.027 0,0.057 -1.208,7.609 -1.351,8.51 -1.405,8.595 -1.577,8.595 -1.747,8.595 -1.803,8.54 -1.942,7.609 -3.128,0.084 -3.154,0.027 -3.154,0 c 0,-0.34 0.252,-0.422 0.703,-0.422 l 1.804,0 C -0.196,-0.422 0,-0.311 0,0 M -0.196,14.91 3.045,-5.213 c 0.027,-0.141 0.027,-0.283 0.027,-0.396 0,-0.254 -0.17,-0.422 -0.987,-0.422 -1.126,0 -1.182,0.283 -1.266,0.818 l -0.367,2.225 c -0.057,0.365 -0.368,0.451 -0.704,0.451 l -2.678,0 c -0.395,0 -0.62,-0.086 -0.675,-0.451 l -0.367,-2.225 c -0.085,-0.535 -0.141,-0.818 -1.269,-0.818 -0.816,0 -0.986,0.168 -0.986,0.422 0,0.113 0,0.255 0.028,0.396 l 3.241,20.123 c 0.17,0.957 0.311,1.607 1.354,1.607 1.155,0 1.295,-0.848 1.408,-1.607"
     style="fill:#000000;fill-opacity:1;fill-rule:nonzero;stroke:none"
     id="path3013"
     inkscape:connector-curvature="0" /></g><g
   id="g3015"
   transform="translate(431.1387,300.3809)"
   style="fill:#000000;fill-opacity:1"><path
     d="m 0,0 0,18.911 c 0,0.562 -0.139,0.703 -0.703,0.703 l -2.002,0 c -0.536,0 -0.815,0 -0.815,1.045 0,1.071 0.279,1.071 0.815,1.071 l 7.638,0 c 0.535,0 0.818,0 0.818,-1.071 0,-1.045 -0.283,-1.045 -0.818,-1.045 l -1.972,0 c -0.565,0 -0.705,-0.141 -0.705,-0.703 L 2.256,0 c 0,-0.535 0,-0.818 -1.155,-0.818 C 0,-0.818 0,-0.535 0,0"
     style="fill:#000000;fill-opacity:1;fill-rule:nonzero;stroke:none"
     id="path3017"
     inkscape:connector-curvature="0" /></g><g
   id="g3019"
   transform="translate(259.8579,309.5142)"
   style="fill:#000000;fill-opacity:1"><path
     d="m 0,0 c -0.744,0 -1.033,-0.166 -1.033,-0.827 l 0,-10.24 c 0,-0.828 0.206,-1.033 1.033,-1.033 l 8.796,0 c 0.785,0 1.198,0 1.198,-1.527 0,-1.571 -0.413,-1.571 -1.198,-1.571 l -11.977,0 c -0.784,0 -1.156,0 -1.156,1.571 l 0,29.898 c 0,1.571 0.372,1.571 1.156,1.571 l 11.977,0 c 0.785,0 1.198,0 1.198,-1.571 0,-1.528 -0.413,-1.528 -1.198,-1.528 l -8.796,0 c -0.827,0 -1.033,-0.206 -1.033,-1.031 l 0,-9.582 C -1.033,3.304 -0.827,3.097 0,3.097 l 4.377,0 c 0.785,0 1.198,0 1.198,-1.569 C 5.575,0 5.162,0 4.377,0 L 0,0 z"
     style="fill:#000000;fill-opacity:1;fill-rule:nonzero;stroke:none"
     id="path3021"
     inkscape:connector-curvature="0" /></g><g
   id="g3023"
   transform="translate(290.0908,326.1577)"
   style="fill:#000000;fill-opacity:1"><path
     d="m 0,0 0,-30.642 c 0,-0.785 -0.042,-1.199 -1.859,-1.199 -1.487,0 -1.734,0.455 -1.941,1.199 l -5.617,18.294 c -0.206,0.66 -0.372,1.032 -0.619,1.032 -0.248,0 -0.289,-0.289 -0.289,-1.032 l 0,-18.294 c 0,-0.785 0,-1.199 -1.693,-1.199 -1.611,0 -1.611,0.414 -1.611,1.199 l 0,30.642 c 0,0.784 0,1.198 1.611,1.198 1.734,0 1.859,-0.414 2.106,-1.198 l 5.741,-18.667 c 0.247,-0.784 0.413,-1.034 0.578,-1.034 0.247,0 0.289,0.29 0.289,1.074 l 0,18.627 c 0,0.784 0,1.198 1.611,1.198 C 0,1.198 0,0.784 0,0"
     style="fill:#000000;fill-opacity:1;fill-rule:nonzero;stroke:none"
     id="path3025"
     inkscape:connector-curvature="0" /></g><g
   id="g3027"
   transform="translate(302.2764,309.5142)"
   style="fill:#000000;fill-opacity:1"><path
     d="m 0,0 c -0.743,0 -1.032,-0.166 -1.032,-0.827 l 0,-10.24 c 0,-0.828 0.206,-1.033 1.032,-1.033 l 8.797,0 c 0.785,0 1.198,0 1.198,-1.527 0,-1.571 -0.413,-1.571 -1.198,-1.571 l -11.977,0 c -0.784,0 -1.156,0 -1.156,1.571 l 0,29.898 c 0,1.571 0.372,1.571 1.156,1.571 l 11.977,0 c 0.785,0 1.198,0 1.198,-1.571 0,-1.528 -0.413,-1.528 -1.198,-1.528 l -8.797,0 c -0.826,0 -1.032,-0.206 -1.032,-1.031 l 0,-9.582 C -1.032,3.304 -0.826,3.097 0,3.097 l 4.377,0 c 0.786,0 1.198,0 1.198,-1.569 C 5.575,0 5.163,0 4.377,0 L 0,0 z"
     style="fill:#000000;fill-opacity:1;fill-rule:nonzero;stroke:none"
     id="path3029"
     inkscape:connector-curvature="0" /></g><g
   id="g3031"
   transform="translate(329.123,316.7837)"
   style="fill:#000000;fill-opacity:1"><path
     d="m 0,0 0,3.303 c 0,3.22 -0.166,4.171 -2.809,4.171 l -3.097,0 c -0.826,0 -1.032,-0.206 -1.032,-1.032 l 0,-9.582 c 0,-0.826 0.206,-1.033 1.032,-1.033 l 3.097,0 C -0.166,-4.173 0,-3.223 0,0 m -10.243,-21.268 0,30.27 c 0,1.57 0.372,1.57 1.157,1.57 l 6.939,0 c 4.666,0 5.45,-2.106 5.45,-6.444 l 0,-4.955 c 0,-4.336 -0.536,-6.443 -4.789,-6.443 -0.372,0 -0.497,-0.042 -0.497,-0.206 0,-0.125 0.083,-0.331 0.207,-0.703 l 4.873,-13.089 c 0.083,-0.166 0.165,-0.371 0.165,-0.703 0,-0.33 -0.329,-0.496 -1.404,-0.496 -1.61,0 -1.776,0.414 -2.065,1.199 l -4.79,12.882 c -0.289,0.785 -0.744,1.116 -1.116,1.116 -0.453,0 -0.825,-0.455 -0.825,-1.073 l 0,-12.925 c 0,-0.785 0,-1.199 -1.694,-1.199 -1.611,0 -1.611,0.414 -1.611,1.199"
     style="fill:#000000;fill-opacity:1;fill-rule:nonzero;stroke:none"
     id="path3033"
     inkscape:connector-curvature="0" /></g><g
   id="g3035"
   transform="translate(342.7534,300.7598)"
   style="fill:#000000;fill-opacity:1"><path
     d="m 0,0 c 0,-2.396 1.156,-3.758 3.47,-3.758 2.354,0 3.551,1.319 3.551,3.758 l 0,5.658 c 0,0.824 -0.207,1.031 -1.032,1.031 l -0.331,0 c -0.784,0 -1.198,0 -1.198,1.528 0,1.571 0.414,1.571 1.198,1.571 l 3.51,0 c 0.785,0 1.157,0 1.157,-1.571 l 0,-8.631 c 0,-4.211 -2.766,-6.441 -6.855,-6.441 -4.668,0 -6.773,2.89 -6.773,6.441 l 0,20.98 c 0,3.552 2.105,6.443 6.773,6.443 4.708,0 6.855,-2.808 6.855,-6.443 0,-1.115 -0.454,-1.156 -1.735,-1.156 -0.99,0 -1.569,0.164 -1.569,0.742 0,2.437 -1.197,3.76 -3.551,3.76 C 1.156,23.912 0,22.547 0,20.152 L 0,0 z"
     style="fill:#000000;fill-opacity:1;fill-rule:nonzero;stroke:none"
     id="path3037"
     inkscape:connector-curvature="0" /></g><g
   id="g3039"
   transform="translate(363.6943,295.5156)"
   style="fill:#000000;fill-opacity:1"><path
     d="m 0,0 0,14.577 c 0,0.702 -0.248,1.405 -0.867,3.468 l -3.8,12.597 c -0.082,0.248 -0.164,0.454 -0.164,0.618 0,0.372 0.289,0.58 1.404,0.58 1.693,0 1.817,-0.414 2.065,-1.198 l 2.065,-6.855 c 0.495,-1.571 0.619,-1.818 0.908,-1.818 0.248,0 0.414,0.247 0.909,1.818 l 2.065,6.855 c 0.248,0.784 0.372,1.198 2.065,1.198 1.115,0 1.404,-0.208 1.404,-0.58 0,-0.164 -0.083,-0.37 -0.165,-0.618 L 4.088,18.128 C 3.429,15.982 3.304,15.361 3.304,14.577 L 3.304,0 c 0,-0.785 0,-1.199 -1.693,-1.199 C 0,-1.199 0,-0.785 0,0"
     style="fill:#000000;fill-opacity:1;fill-rule:nonzero;stroke:none"
     id="path3041"
     inkscape:connector-curvature="0" /></g><g
   id="g3043"
   transform="translate(465.2676,309.5972)"
   style="fill:#000000;fill-opacity:1"><path
     d="m 0,0 c -0.907,-2.974 -1.239,-3.882 -1.651,-3.882 -0.455,0 -0.745,0.908 -1.652,3.882 l -1.528,5.038 c -0.206,0.66 -0.372,1.032 -0.621,1.032 -0.246,0 -0.289,-0.289 -0.289,-1.032 l 0,-19.12 c 0,-0.785 0,-1.199 -1.692,-1.199 -1.611,0 -1.611,0.414 -1.611,1.199 l 0,30.643 c 0,0.784 0,1.198 1.611,1.198 1.735,0 1.858,-0.414 2.107,-1.198 l 2.435,-7.889 c 0.578,-1.9 0.868,-2.272 1.28,-2.272 0.415,0 0.661,0.372 1.239,2.272 l 2.395,7.889 c 0.249,0.784 0.373,1.198 2.107,1.198 1.611,0 1.611,-0.414 1.611,-1.198 l 0,-30.643 c 0,-0.785 0,-1.199 -1.611,-1.199 -1.692,0 -1.692,0.414 -1.692,1.199 l 0,19.12 C 2.438,5.781 2.396,6.07 2.149,6.07 1.9,6.07 1.734,5.698 1.528,5.038 L 0,0 z"
     style="fill:#000000;fill-opacity:1;fill-rule:nonzero;stroke:none"
     id="path3045"
     inkscape:connector-curvature="0" /></g><g
   id="g3047"
   transform="translate(486.54,303.1543)"
   style="fill:#000000;fill-opacity:1"><path
     d="m 0,0 c 0,0.041 0,0.084 -1.776,11.151 -0.207,1.32 -0.289,1.445 -0.538,1.445 -0.248,0 -0.33,-0.083 -0.537,-1.445 C -4.585,0.123 -4.627,0.041 -4.627,0 c 0,-0.494 0.372,-0.621 1.033,-0.621 l 2.644,0 C -0.291,-0.621 0,-0.455 0,0 M -0.291,21.847 4.46,-7.639 C 4.5,-7.846 4.5,-8.053 4.5,-8.217 c 0,-0.371 -0.247,-0.621 -1.445,-0.621 -1.652,0 -1.735,0.414 -1.858,1.199 l -0.538,3.26 c -0.081,0.539 -0.536,0.662 -1.031,0.662 l -3.924,0 c -0.578,0 -0.909,-0.123 -0.99,-0.662 l -0.538,-3.26 c -0.123,-0.785 -0.206,-1.199 -1.858,-1.199 -1.198,0 -1.445,0.25 -1.445,0.621 0,0.164 0,0.371 0.04,0.578 l 4.749,29.486 c 0.249,1.404 0.455,2.355 1.984,2.355 1.693,0 1.899,-1.24 2.063,-2.355"
     style="fill:#000000;fill-opacity:1;fill-rule:nonzero;stroke:none"
     id="path3049"
     inkscape:connector-curvature="0" /></g><g
   id="g3051"
   transform="translate(498.8896,295.5156)"
   style="fill:#000000;fill-opacity:1"><path
     d="m 0,0 0,27.71 c 0,0.826 -0.206,1.032 -1.033,1.032 l -2.931,0 c -0.787,0 -1.199,0 -1.199,1.528 0,1.57 0.412,1.57 1.199,1.57 l 11.191,0 c 0.784,0 1.197,0 1.197,-1.57 0,-1.528 -0.413,-1.528 -1.197,-1.528 l -2.891,0 c -0.827,0 -1.033,-0.206 -1.033,-1.032 L 3.303,0 c 0,-0.785 0,-1.199 -1.692,-1.199 C 0,-1.199 0,-0.785 0,0"
     style="fill:#000000;fill-opacity:1;fill-rule:nonzero;stroke:none"
     id="path3053"
     inkscape:connector-curvature="0" /></g><g
   id="g3055"
   transform="translate(517.4355,295.5156)"
   style="fill:#000000;fill-opacity:1"><path
     d="m 0,0 0,27.71 c 0,0.826 -0.206,1.032 -1.033,1.032 l -2.932,0 c -0.786,0 -1.198,0 -1.198,1.528 0,1.57 0.412,1.57 1.198,1.57 l 11.192,0 c 0.784,0 1.196,0 1.196,-1.57 0,-1.528 -0.412,-1.528 -1.196,-1.528 l -2.891,0 c -0.827,0 -1.033,-0.206 -1.033,-1.032 L 3.303,0 c 0,-0.785 0,-1.199 -1.692,-1.199 C 0,-1.199 0,-0.785 0,0"
     style="fill:#000000;fill-opacity:1;fill-rule:nonzero;stroke:none"
     id="path3057"
     inkscape:connector-curvature="0" /></g><g
   id="g3059"
   transform="translate(536.5996,309.5142)"
   style="fill:#000000;fill-opacity:1"><path
     d="m 0,0 c -0.744,0 -1.033,-0.166 -1.033,-0.827 l 0,-10.24 c 0,-0.828 0.208,-1.033 1.033,-1.033 l 8.797,0 c 0.785,0 1.197,0 1.197,-1.527 0,-1.571 -0.412,-1.571 -1.197,-1.571 l -11.978,0 c -0.784,0 -1.156,0 -1.156,1.571 l 0,29.898 c 0,1.571 0.372,1.571 1.156,1.571 l 11.978,0 c 0.785,0 1.197,0 1.197,-1.571 0,-1.528 -0.412,-1.528 -1.197,-1.528 l -8.797,0 c -0.825,0 -1.033,-0.206 -1.033,-1.031 l 0,-9.582 C -1.033,3.304 -0.825,3.097 0,3.097 l 4.378,0 c 0.784,0 1.197,0 1.197,-1.569 C 5.575,0 5.162,0 4.378,0 L 0,0 z"
     style="fill:#000000;fill-opacity:1;fill-rule:nonzero;stroke:none"
     id="path3061"
     inkscape:connector-curvature="0" /></g><g
   id="g3063"
   transform="translate(563.4473,316.7837)"
   style="fill:#000000;fill-opacity:1"><path
     d="m 0,0 0,3.303 c 0,3.22 -0.166,4.171 -2.811,4.171 l -3.096,0 c -0.824,0 -1.033,-0.206 -1.033,-1.032 l 0,-9.582 c 0,-0.826 0.209,-1.033 1.033,-1.033 l 3.096,0 C -0.166,-4.173 0,-3.223 0,0 m -10.243,-21.268 0,30.27 c 0,1.57 0.372,1.57 1.156,1.57 l 6.938,0 c 4.668,0 5.452,-2.106 5.452,-6.444 l 0,-4.955 c 0,-4.336 -0.538,-6.443 -4.791,-6.443 -0.372,0 -0.495,-0.042 -0.495,-0.206 0,-0.125 0.083,-0.331 0.206,-0.703 l 4.874,-13.089 c 0.083,-0.166 0.166,-0.371 0.166,-0.703 0,-0.33 -0.332,-0.496 -1.406,-0.496 -1.611,0 -1.774,0.414 -2.066,1.199 l -4.788,12.882 c -0.289,0.785 -0.744,1.116 -1.116,1.116 -0.455,0 -0.827,-0.455 -0.827,-1.073 l 0,-12.925 c 0,-0.785 0,-1.199 -1.692,-1.199 -1.611,0 -1.611,0.414 -1.611,1.199"
     style="fill:#000000;fill-opacity:1;fill-rule:nonzero;stroke:none"
     id="path3065"
     inkscape:connector-curvature="0" /></g><g
   id="g3067"
   transform="translate(573.5664,316.3286)"
   style="fill:#000000;fill-opacity:1"><path
     d="m 0,0 0,4.997 c 0,3.552 2.107,6.443 6.36,6.443 4.296,0 6.443,-2.808 6.443,-6.443 0,-1.115 -0.455,-1.156 -1.735,-1.156 -0.99,0 -1.568,0.164 -1.568,0.742 0,2.438 -1.199,3.76 -3.14,3.76 -1.9,0 -3.056,-1.364 -3.056,-3.76 l 0,-4.17 c 0,-2.685 0.744,-4.337 3.056,-4.337 4.748,0 6.443,-3.222 6.443,-7.063 l 0,-4.996 c 0,-3.551 -2.107,-6.441 -6.36,-6.441 -4.296,0 -6.443,2.808 -6.443,6.441 0,1.115 0.455,1.158 1.735,1.158 0.991,0 1.569,-0.166 1.569,-0.744 0,-2.439 1.198,-3.758 3.139,-3.758 1.901,0 3.057,1.362 3.057,3.758 l 0,4.17 c 0,2.684 -0.744,4.378 -3.057,4.378 C 1.692,-7.021 0,-3.841 0,0"
     style="fill:#000000;fill-opacity:1;fill-rule:nonzero;stroke:none"
     id="path3069"
     inkscape:connector-curvature="0" /></g><g
   id="g3071"
   transform="translate(386.0103,287.8223)"
   style="fill:#000000;fill-opacity:0;stroke:#84e464;stroke-opacity:1"><path
     d="M 0,0 27.019,-15.6 54.04,0"
     style="fill:#000000;fill-opacity:0;stroke:#84e464;stroke-width:2.02900004;stroke-linecap:round;stroke-linejoin:round;stroke-miterlimit:10;stroke-opacity:1;stroke-dasharray:none"
     id="path3073"
     inkscape:connector-curvature="0" /></g><g
   inkscape:groupmode="layer"
   id="layer1"
   inkscape:label="Layer"
   style="display:inline" /><text
   xml:space="preserve"
   style="font-size:32px;font-style:normal;font-weight:normal;line-height:125%;letter-spacing:0px;word-spacing:0px;fill:#000000;fill-opacity:1;stroke:none;font-family:Sans"
   x="259.25851"
   y="-240.57239"
   id="text3119"
   sodipodi:linespacing="125%"
   transform="scale(1,-1)"><tspan
     sodipodi:role="line"
     id="tspan3121"
     x="259.25851"
     y="-240.57239"
     style="font-size:14.39999962px;font-style:normal;font-variant:normal;font-weight:normal;font-stretch:normal;font-family:NeoTech;-inkscape-font-specification:NeoTech">energy is essential in our live and we care about it</tspan></text>



<g
   style="fill:#000000;fill-opacity:0;stroke:#84e464;stroke-opacity:1"
   transform="translate(385.32686,347.28195)"
   id="g3934"><path
     id="path3936"
     style="fill:#000000;fill-opacity:0;stroke:#84e464;stroke-width:2.02900004;stroke-linecap:round;stroke-linejoin:round;stroke-miterlimit:10;stroke-opacity:1;stroke-dasharray:none"
     d="M 54.140879,-12.041661 26.917754,3.1993299 0.10561342,-12.756972"
     inkscape:connector-curvature="0" /></g>
</g><g
         inkscape:groupmode="layer"
         id="layer2"
         inkscape:label="beegroup"
         style="display:inline" /></g></g></svg>